<svg width="1183" height="810" viewBox="0 0 1183 810" fill="none" xmlns="http://www.w3.org/2000/svg">
<path opacity="0.2" d="M999.615 2H1090.31M999.615 2V91.5556M999.615 2H908.923M1090.31 2V91.5556M1090.31 2H1181V91.5556M1090.31 91.5556H999.615M1090.31 91.5556H1181M1090.31 91.5556V181.111M999.615 91.5556V181.111M999.615 91.5556H908.923M1181 91.5556V181.111M1090.31 181.111H999.615M1090.31 181.111V270.667M1090.31 181.111H1181M999.615 181.111V270.667M999.615 181.111H908.923M1090.31 270.667H999.615M1090.31 270.667V360.222M1090.31 270.667H1181M999.615 270.667V360.222M999.615 270.667H908.923M1090.31 360.222H999.615M1090.31 360.222V449.778M1090.31 360.222H1181M999.615 360.222V449.778M999.615 360.222H908.923M1090.31 449.778H999.615M1090.31 449.778V539.333M1090.31 449.778H1181M999.615 449.778V539.333M999.615 449.778H908.923M1090.31 539.333H999.615M1090.31 539.333V628.889M1090.31 539.333H1181M999.615 539.333V628.889M999.615 539.333H908.923M1090.31 628.889H999.615M1090.31 628.889V718.444M1090.31 628.889H1181M999.615 628.889V718.444M999.615 628.889H908.923M1090.31 718.444H999.615M1090.31 718.444V808M1090.31 718.444H1181M999.615 718.444V808M999.615 718.444H908.923M1090.31 808H999.615M1090.31 808H1181V718.444M999.615 808H908.923M1181 181.111V270.667M1181 270.667V360.222M1181 360.222V449.778M1181 449.778V539.333M1181 539.333V628.889M1181 628.889V718.444M92.6923 2H2V91.5556M92.6923 2V91.5556M92.6923 2H183.385M92.6923 91.5556H2M92.6923 91.5556H183.385M92.6923 91.5556V181.111M2 91.5556V181.111M183.385 2V91.5556M183.385 2H274.077M183.385 91.5556H274.077M183.385 91.5556V181.111M274.077 2V91.5556M274.077 2H364.769M274.077 91.5556H364.769M274.077 91.5556V181.111M364.769 2V91.5556M364.769 2H455.462M364.769 91.5556H455.462M364.769 91.5556V181.111M455.462 2V91.5556M455.462 2H546.154M455.462 91.5556H546.154M455.462 91.5556V181.111M546.154 2V91.5556M546.154 2H636.846M546.154 91.5556H636.846M546.154 91.5556V181.111M636.846 2V91.5556M636.846 2H727.539M636.846 91.5556H727.539M636.846 91.5556V181.111M727.539 2V91.5556M727.539 2H818.231M727.539 91.5556H818.231M727.539 91.5556V181.111M818.231 2V91.5556M818.231 2H908.923M818.231 91.5556H908.923M818.231 91.5556V181.111M908.923 2V91.5556M908.923 91.5556V181.111M92.6923 181.111H2M92.6923 181.111V270.667M92.6923 181.111H183.385M2 181.111V270.667M92.6923 270.667H2M92.6923 270.667V360.222M92.6923 270.667H183.385M2 270.667V360.222M92.6923 360.222H2M92.6923 360.222V449.778M92.6923 360.222H183.385M2 360.222V449.778M92.6923 449.778H2M92.6923 449.778V539.333M92.6923 449.778H183.385M2 449.778V539.333M92.6923 539.333H2M92.6923 539.333V628.889M92.6923 539.333H183.385M2 539.333V628.889M92.6923 628.889H2M92.6923 628.889V718.444M92.6923 628.889H183.385M2 628.889V718.444M92.6923 718.444H2M92.6923 718.444V808M92.6923 718.444H183.385M2 718.444V808H92.6923M92.6923 808H183.385M183.385 181.111V270.667M183.385 181.111H274.077M183.385 270.667V360.222M183.385 270.667H274.077M183.385 360.222V449.778M183.385 360.222H274.077M183.385 449.778V539.333M183.385 449.778H274.077M183.385 539.333V628.889M183.385 539.333H274.077M183.385 628.889V718.444M183.385 628.889H274.077M183.385 718.444V808M183.385 718.444H274.077M183.385 808H274.077M274.077 181.111V270.667M274.077 181.111H364.769M274.077 270.667V360.222M274.077 270.667H364.769M274.077 360.222V449.778M274.077 360.222H364.769M274.077 449.778V539.333M274.077 449.778H364.769M274.077 539.333V628.889M274.077 539.333H364.769M274.077 628.889V718.444M274.077 628.889H364.769M274.077 718.444V808M274.077 718.444H364.769M274.077 808H364.769M364.769 181.111V270.667M364.769 181.111H455.462M364.769 270.667V360.222M364.769 270.667H455.462M364.769 360.222V449.778M364.769 360.222H455.462M364.769 449.778V539.333M364.769 449.778H455.462M364.769 539.333V628.889M364.769 539.333H455.462M364.769 628.889V718.444M364.769 628.889H455.462M364.769 718.444V808M364.769 718.444H455.462M364.769 808H455.462M455.462 181.111V270.667M455.462 181.111H546.154M455.462 270.667V360.222M455.462 270.667H546.154M455.462 360.222V449.778M455.462 360.222H546.154M455.462 449.778V539.333M455.462 449.778H546.154M455.462 539.333V628.889M455.462 539.333H546.154M455.462 628.889V718.444M455.462 628.889H546.154M455.462 718.444V808M455.462 718.444H546.154M455.462 808H546.154M546.154 181.111V270.667M546.154 181.111H636.846M546.154 270.667V360.222M546.154 270.667H636.846M546.154 360.222V449.778M546.154 360.222H636.846M546.154 449.778V539.333M546.154 449.778H636.846M546.154 539.333V628.889M546.154 539.333H636.846M546.154 628.889V718.444M546.154 628.889H636.846M546.154 718.444V808M546.154 718.444H636.846M546.154 808H636.846M636.846 181.111V270.667M636.846 181.111H727.539M636.846 270.667V360.222M636.846 270.667H727.539M636.846 360.222V449.778M636.846 360.222H727.539M636.846 449.778V539.333M636.846 449.778H727.539M636.846 539.333V628.889M636.846 539.333H727.539M636.846 628.889V718.444M636.846 628.889H727.539M636.846 718.444V808M636.846 718.444H727.539M636.846 808H727.539M727.539 181.111V270.667M727.539 181.111H818.231M727.539 270.667V360.222M727.539 270.667H818.231M727.539 360.222V449.778M727.539 360.222H818.231M727.539 449.778V539.333M727.539 449.778H818.231M727.539 539.333V628.889M727.539 539.333H818.231M727.539 628.889V718.444M727.539 628.889H818.231M727.539 718.444V808M727.539 718.444H818.231M727.539 808H818.231M818.231 181.111V270.667M818.231 181.111H908.923M818.231 270.667V360.222M818.231 270.667H908.923M818.231 360.222V449.778M818.231 360.222H908.923M818.231 449.778V539.333M818.231 449.778H908.923M818.231 539.333V628.889M818.231 539.333H908.923M818.231 628.889V718.444M818.231 628.889H908.923M818.231 718.444V808M818.231 718.444H908.923M818.231 808H908.923M908.923 181.111V270.667M908.923 270.667V360.222M908.923 360.222V449.778M908.923 449.778V539.333M908.923 539.333V628.889M908.923 628.889V718.444M908.923 718.444V808" stroke="url(#paint0_radial_683_1377)" stroke-opacity="0.2" stroke-width="2.95679"/>
<defs>
<radialGradient id="paint0_radial_683_1377" cx="0" cy="0" r="1" gradientUnits="userSpaceOnUse" gradientTransform="translate(591.5 405) rotate(90) scale(403 589.5)">
<stop stop-color="white"/>
<stop offset="1" stop-color="white" stop-opacity="0"/>
</radialGradient>
</defs>
</svg>
