<svg width="20" height="20" viewBox="0 0 20 20" fill="none" xmlns="http://www.w3.org/2000/svg">
<path d="M12.474 10.4735C12.5347 10.4101 12.5823 10.3353 12.614 10.2535C12.6807 10.0912 12.6807 9.90914 12.614 9.74683C12.5823 9.665 12.5347 9.59023 12.474 9.52683L10.474 7.52683C10.3485 7.4013 10.1782 7.33077 10.0007 7.33077C9.82312 7.33077 9.65286 7.4013 9.52732 7.52683C9.40178 7.65237 9.33126 7.82263 9.33126 8.00017C9.33126 8.1777 9.40178 8.34796 9.52732 8.4735L10.394 9.3335H8.00065C7.82384 9.3335 7.65427 9.40374 7.52925 9.52876C7.40423 9.65379 7.33399 9.82335 7.33399 10.0002C7.33399 10.177 7.40423 10.3465 7.52925 10.4716C7.65427 10.5966 7.82384 10.6668 8.00065 10.6668H10.394L9.52732 11.5268C9.46483 11.5888 9.41524 11.6625 9.38139 11.7438C9.34755 11.825 9.33012 11.9122 9.33012 12.0002C9.33012 12.0882 9.34755 12.1753 9.38139 12.2565C9.41524 12.3378 9.46483 12.4115 9.52732 12.4735C9.5893 12.536 9.66303 12.5856 9.74427 12.6194C9.82551 12.6533 9.91265 12.6707 10.0007 12.6707C10.0887 12.6707 10.1758 12.6533 10.257 12.6194C10.3383 12.5856 10.412 12.536 10.474 12.4735L12.474 10.4735ZM16.6673 10.0002C16.6673 8.68162 16.2763 7.39269 15.5438 6.29636C14.8112 5.20004 13.7701 4.34555 12.5519 3.84097C11.3337 3.33638 9.99326 3.20436 8.70005 3.4616C7.40685 3.71883 6.21896 4.35377 5.28661 5.28612C4.35426 6.21847 3.71932 7.40636 3.46209 8.69956C3.20485 9.99277 3.33687 11.3332 3.84146 12.5514C4.34604 13.7696 5.20052 14.8108 6.29685 15.5433C7.39318 16.2758 8.68211 16.6668 10.0007 16.6668C11.7688 16.6668 13.4645 15.9645 14.7147 14.7142C15.9649 13.464 16.6673 11.7683 16.6673 10.0002V10.0002ZM4.66732 10.0002C4.66732 8.94533 4.98012 7.91419 5.56615 7.03712C6.15218 6.16006 6.98514 5.47648 7.95968 5.07281C8.93421 4.66914 10.0066 4.56352 11.0411 4.76931C12.0757 4.9751 13.026 5.48305 13.7719 6.22893C14.5178 6.97481 15.0257 7.92512 15.2315 8.95968C15.4373 9.99425 15.3317 11.0666 14.928 12.0411C14.5243 13.0157 13.8408 13.8486 12.9637 14.4347C12.0866 15.0207 11.0555 15.3335 10.0007 15.3335C8.58617 15.3335 7.22961 14.7716 6.22942 13.7714C5.22922 12.7712 4.66732 11.4147 4.66732 10.0002V10.0002Z" fill="#6B767F"/>
</svg>
