<svg width="24" height="25" viewBox="0 0 24 25" fill="none" xmlns="http://www.w3.org/2000/svg">
<g clip-path="url(#clip0_245_666)">
<path fill-rule="evenodd" clip-rule="evenodd" d="M12.0099 0.664062C5.36875 0.664062 0 6.07239 0 12.7632C0 18.1116 3.43994 22.6388 8.21205 24.2412C8.80869 24.3616 9.02724 23.9808 9.02724 23.6605C9.02724 23.38 9.00757 22.4186 9.00757 21.4168C5.6667 22.1381 4.97099 19.9745 4.97099 19.9745C4.43409 18.5723 3.63858 18.2119 3.63858 18.2119C2.54511 17.4707 3.71823 17.4707 3.71823 17.4707C4.93117 17.5508 5.56763 18.7126 5.56763 18.7126C6.64118 20.5554 8.37111 20.0347 9.06706 19.7142C9.16638 18.9329 9.48473 18.3921 9.82275 18.0917C7.15817 17.8112 4.35469 16.7696 4.35469 12.1221C4.35469 10.8 4.8316 9.71834 5.58729 8.8771C5.46807 8.57669 5.0504 7.3345 5.70677 5.67193C5.70677 5.67193 6.72083 5.35136 9.00732 6.91388C9.98625 6.64903 10.9958 6.5143 12.0099 6.51317C13.024 6.51317 14.0577 6.65354 15.0123 6.91388C17.299 5.35136 18.3131 5.67193 18.3131 5.67193C18.9695 7.3345 18.5515 8.57669 18.4323 8.8771C19.2079 9.71834 19.6652 10.8 19.6652 12.1221C19.6652 16.7696 16.8617 17.791 14.1772 18.0917C14.6148 18.4722 14.9924 19.1932 14.9924 20.3351C14.9924 21.9576 14.9727 23.2598 14.9727 23.6603C14.9727 23.9808 15.1915 24.3616 15.7879 24.2414C20.56 22.6386 23.9999 18.1116 23.9999 12.7632C24.0196 6.07239 18.6312 0.664062 12.0099 0.664062Z" fill="white"/>
</g>
<defs>
<clipPath id="clip0_245_666">
<rect width="24" height="24" fill="white" transform="translate(0 0.664062)"/>
</clipPath>
</defs>
</svg>
