<svg width="24" height="25" viewBox="0 0 24 25" fill="none" xmlns="http://www.w3.org/2000/svg">
<g opacity="0.8">
<g clip-path="url(#clip0_245_668)">
<path d="M7.27547 19.4142H4.01016V8.89896H7.27547V19.4142ZM5.64105 7.46459C4.59691 7.46459 3.75 6.59974 3.75 5.5556C3.75 5.05407 3.94924 4.57307 4.30388 4.21843C4.65852 3.86379 5.13952 3.66455 5.64105 3.66455C6.14259 3.66455 6.62359 3.86379 6.97823 4.21843C7.33287 4.57307 7.53211 5.05407 7.53211 5.5556C7.53211 6.59974 6.68484 7.46459 5.64105 7.46459ZM19.4965 19.4142H16.2382V14.2954C16.2382 13.0755 16.2136 11.5111 14.5405 11.5111C12.8428 11.5111 12.5827 12.8365 12.5827 14.2076V19.4142H9.32086V8.89896H12.4526V10.3333H12.4983C12.9342 9.50716 13.9991 8.63529 15.5878 8.63529C18.8925 8.63529 19.5 10.8115 19.5 13.638V19.4142H19.4965Z" fill="white"/>
</g>
</g>
<defs>
<clipPath id="clip0_245_668">
<rect width="15.75" height="18" fill="white" transform="translate(3.75 3.66406)"/>
</clipPath>
</defs>
</svg>
