<svg width="48" height="48" viewBox="0 0 48 48" fill="none" xmlns="http://www.w3.org/2000/svg">
<g clip-path="url(#clip0_251_1310)">
<path d="M20.2012 22.8164V24.0565C20.7093 24.0565 20.7907 23.8874 20.7907 23.4333C20.7907 22.9855 20.7164 22.8164 20.2012 22.8164Z" fill="white"/>
<path d="M24.0004 12.6108C17.7221 12.6108 12.6143 17.7198 12.6143 24C12.6143 30.2793 17.7221 35.3883 24.0004 35.3883C30.279 35.3883 35.3865 30.2793 35.3865 24C35.3865 17.7198 30.279 12.6108 24.0004 12.6108ZM18.4545 25.5746C18.4545 26.9032 17.9396 26.9508 16.7471 26.9508H15.7504V22.125H16.7471C17.7026 22.125 18.4545 22.1385 18.4545 23.2976C18.4545 23.8331 18.2989 24.3142 17.6554 24.3753V24.4226C18.3735 24.4226 18.4545 24.9513 18.4545 25.5746ZM20.9539 26.9508C20.8185 26.754 20.7911 26.4697 20.7911 26.28V25.2566C20.7911 24.918 20.5879 24.7485 20.3846 24.7485H20.2016V26.9512H19.1254V22.125H20.2088C21.279 22.125 21.9165 22.2337 21.9165 23.25C21.9165 23.8533 21.6656 24.246 21.0555 24.348V24.3618C21.5981 24.3753 21.9165 24.5786 21.9165 25.2701V26.28C21.9165 26.4697 21.9503 26.754 22.0856 26.9508H20.9539ZM24.3679 26.9508L24.2385 25.7643H23.6291L23.4461 26.9508H22.4978L23.3179 22.125H24.8629L25.4861 26.9508H24.3679ZM29.1848 26.9508H27.7414L26.9074 22.9181H26.8939V26.9508H25.8754V22.125H27.5715L28.29 25.6353H28.3031V22.125H29.1848V26.9508ZM30.9383 26.9508H29.6254V22.125H30.9383C32.1983 22.125 32.6254 22.3286 32.6254 23.7723V25.4932C32.6254 26.4086 32.3543 26.9508 30.9383 26.9508Z" fill="white"/>
<path d="M30.9039 22.8164V26.2597C31.4529 26.2597 31.5005 26.0493 31.5005 25.5888V23.6024C31.5005 22.9586 31.4739 22.8164 30.9039 22.8164ZM23.9473 22.8843L23.7511 25.0327H24.1576L23.9611 22.8843H23.9473ZM16.7334 22.8164V24.0839C17.0855 24.0637 17.3296 24.1788 17.3296 23.4536C17.3296 22.9788 17.2891 22.7827 16.7334 22.8164ZM16.7334 24.7747V26.2593C17.336 26.3137 17.3296 25.9679 17.3296 25.4662C17.3296 24.7818 17.2078 24.7747 16.7334 24.7747Z" fill="white"/>
<path d="M45.8959 19.3522C45.3255 18.5977 44.7855 17.8852 44.5849 17.2627C44.3666 16.5866 44.3842 15.6554 44.4034 14.6688C44.4341 13.0616 44.4683 11.2394 43.4239 9.7878C42.36 8.31555 40.6155 7.7838 39.0758 7.31505C38.1499 7.03343 37.2761 6.76755 36.7223 6.36105C36.1823 5.96505 35.6681 5.2158 35.124 4.42268C34.2041 3.08205 33.1624 1.5633 31.4224 0.992926C30.9746 0.845926 30.5066 0.774301 29.9925 0.774301C28.7996 0.774301 27.6532 1.17443 26.544 1.56218C25.6072 1.88805 24.7237 2.19668 24 2.19668C23.2759 2.19668 22.3924 1.88768 21.4564 1.56105C20.3482 1.17405 19.2026 0.773926 18.0112 0.773926C17.4975 0.773926 17.0291 0.844801 16.5791 0.991801C14.8369 1.56255 13.7944 3.08205 12.8745 4.42268C12.33 5.2158 11.8155 5.96543 11.2744 6.36255C10.7216 6.76793 9.84788 7.0338 8.92275 7.3158C7.3845 7.78455 5.6415 8.31555 4.57913 9.78443C3.53025 11.2391 3.56475 13.0619 3.59587 14.6703C3.61462 15.6562 3.633 16.5869 3.41513 17.2631C3.2145 17.8852 2.67488 18.5981 2.10413 19.3518C1.1175 20.6561 0 22.1328 0 23.9999C0 25.8663 1.11825 27.3438 2.1045 28.648C2.67525 29.4025 3.2145 30.115 3.41513 30.7364C3.63188 31.4107 3.61387 32.3414 3.59512 33.3265C3.56437 34.9353 3.5295 36.7585 4.57762 38.2124C5.63925 39.6839 7.38375 40.2142 8.92237 40.6822C9.84787 40.9634 10.7224 41.2293 11.2744 41.635C11.8151 42.0322 12.3293 42.7818 12.8741 43.5753C13.794 44.9163 14.8365 46.4373 16.5769 47.0065C17.0276 47.1543 17.4956 47.2255 18.0079 47.2255C19.1981 47.2255 20.3438 46.8258 21.4519 46.4384C22.389 46.1114 23.2736 45.8032 24 45.8032C24.7237 45.8032 25.6065 46.1107 26.5414 46.4373C27.6502 46.8243 28.7977 47.2255 29.9917 47.2255C30.5059 47.2255 30.9746 47.1539 31.4235 47.0051C33.1609 46.4366 34.2034 44.9163 35.1236 43.5745C35.6678 42.7818 36.1819 42.0322 36.7234 41.6336C37.2743 41.2304 38.1488 40.9649 39.0746 40.6837C40.614 40.2157 42.3592 39.685 43.4212 38.2147C44.4675 36.7593 44.433 34.9383 44.4026 33.3311C44.3831 32.3444 44.3662 31.4129 44.5845 30.736C44.7844 30.1165 45.3236 29.4044 45.8929 28.6507C46.8817 27.3468 48 25.8674 48 23.9999C48 22.1332 46.8825 20.6561 45.8959 19.3522ZM36.1016 15.5879L37.3474 15.1274L37.6751 13.8416C37.7299 13.6278 37.8844 13.5952 38.0198 13.7681L38.8418 14.8098L40.1663 14.7232C40.3871 14.7082 40.4655 14.8451 40.3436 15.0281L39.606 16.1328L40.0973 17.3662C40.1782 17.5702 40.0729 17.6872 39.8617 17.6279L38.583 17.2687L37.5615 18.1177C37.3927 18.2576 37.2484 18.1942 37.2397 17.9741L37.1865 16.6473L36.0645 15.9382C35.88 15.8216 35.8961 15.6644 36.1016 15.5879ZM30.0919 10.5498L30.9405 9.52755L30.5816 8.24993C30.5224 8.03768 30.6394 7.9323 30.8434 8.01368L32.0756 8.5053L33.18 7.76768C33.363 7.6443 33.5002 7.7238 33.4849 7.94318L33.399 9.26843L34.4404 10.0912C34.6125 10.2273 34.5795 10.3814 34.368 10.4358L33.0806 10.7639L32.6198 12.0097C32.544 12.2152 32.3873 12.2328 32.2691 12.0468L31.56 10.9237L30.2336 10.8712C30.0154 10.8629 29.9516 10.7186 30.0919 10.5498ZM21.7511 6.6198L23.0644 6.42855L23.6516 5.23755C23.7495 5.03955 23.9066 5.03955 24.0037 5.23755L24.5918 6.42855L25.9046 6.6198C26.1225 6.65093 26.1709 6.80093 26.0138 6.95468L25.0635 7.88243L25.2878 9.19155C25.3252 9.4083 25.1977 9.5013 25.0024 9.39893L23.8279 8.78093L22.653 9.39893C22.458 9.5013 22.3305 9.4083 22.3676 9.19155L22.5922 7.88243L21.642 6.95468C21.4845 6.8013 21.5336 6.65093 21.7511 6.6198ZM13.1801 9.95955L14.2219 9.13793L14.1353 7.81268C14.1206 7.59218 14.2571 7.51343 14.4401 7.63643L15.5441 8.37405L16.7771 7.88243C16.9819 7.80068 17.0989 7.90643 17.0392 8.1183L16.6796 9.3963L17.5286 10.4182C17.6689 10.5873 17.6047 10.7317 17.385 10.7407L16.0586 10.7928L15.3502 11.9156C15.2329 12.1016 15.0761 12.0847 14.9993 11.8784L14.5391 10.6323L13.2529 10.3046C13.0402 10.2506 13.008 10.0961 13.1801 9.95955ZM7.35712 14.4959L8.682 14.5818L9.50362 13.5397C9.64013 13.3672 9.79425 13.4002 9.84863 13.6128L10.176 14.8994L11.4221 15.3603C11.6284 15.4364 11.6452 15.5932 11.4589 15.7113L10.3365 16.4201L10.2844 17.7464C10.2758 17.9666 10.1314 18.0307 9.96225 17.8904L8.94075 17.0407L7.6635 17.4003C7.45125 17.4599 7.3455 17.3429 7.42688 17.1382L7.9185 15.9056L7.18087 14.8012C7.05788 14.6174 7.137 14.4813 7.35712 14.4959ZM6.03338 26.2331L5.84288 24.919L4.65225 24.3318C4.45425 24.2347 4.45425 24.0772 4.65225 23.9797L5.84288 23.3924L6.03338 22.0784C6.06525 21.8606 6.21562 21.8114 6.369 21.9693L7.29562 22.9199L8.60437 22.6953C8.82113 22.6578 8.91412 22.7857 8.81175 22.9811L8.19413 24.1559L8.81213 25.3312C8.91413 25.5258 8.82113 25.6533 8.60437 25.6165L7.29562 25.3923L6.369 26.3418C6.21525 26.4993 6.06525 26.4506 6.03338 26.2331ZM11.2905 32.9857L10.0451 33.4462L9.71737 34.7328C9.663 34.9462 9.50887 34.9792 9.37275 34.8063L8.55112 33.7645L7.22587 33.8512C7.00575 33.8658 6.927 33.7289 7.05 33.5463L7.78763 32.4416L7.29562 31.2089C7.21425 31.0038 7.32 30.8868 7.5315 30.9468L8.80912 31.3057L9.831 30.4567C9.99975 30.3164 10.1445 30.3798 10.1528 30.6003L10.2056 31.9267L11.3284 32.6358C11.514 32.7524 11.4967 32.9092 11.2905 32.9857ZM17.3014 38.0242L16.4528 39.0468L16.8116 40.3237C16.8713 40.5355 16.7542 40.6413 16.5499 40.5603L15.3173 40.0683L14.2133 40.8059C14.0303 40.9297 13.8934 40.8506 13.9084 40.6301L13.9946 39.3052L12.9525 38.4832C12.78 38.3467 12.813 38.1918 13.026 38.1378L14.3119 37.8101L14.7728 36.5643C14.8489 36.3584 15.0052 36.3408 15.123 36.5275L15.8325 37.6492L17.1585 37.7017C17.3775 37.7111 17.4416 37.855 17.3014 38.0242ZM25.6418 41.9545L24.3289 42.1451L23.7416 43.3368C23.6449 43.5348 23.4862 43.5344 23.3899 43.3368L22.8026 42.1458L21.489 41.9545C21.2711 41.9223 21.2224 41.7723 21.3799 41.6189L22.3294 40.6912L22.1051 39.382C22.0684 39.166 22.1955 39.0723 22.3909 39.1747L23.5661 39.7923L24.7406 39.1739C24.9356 39.0723 25.0627 39.1653 25.0256 39.382L24.8021 40.6912L25.7505 41.6182C25.9088 41.7731 25.8596 41.9223 25.6418 41.9545ZM34.212 38.6148L33.1714 39.4361L33.2576 40.7613C33.273 40.9822 33.1354 41.0609 32.9528 40.9383L31.8484 40.2003L30.6157 40.6919C30.4106 40.7733 30.294 40.6672 30.3536 40.4561L30.7125 39.178L29.8635 38.1562C29.7236 37.9874 29.7874 37.8423 30.0071 37.8348L31.3342 37.7812L32.0419 36.6577C32.1592 36.4728 32.3164 36.4901 32.3929 36.6959L32.8538 37.9417L34.1393 38.2698C34.3526 38.3238 34.3849 38.4776 34.212 38.6148ZM24 36.9427C16.8529 36.9427 11.0599 31.1486 11.0599 23.9999C11.0599 16.8513 16.8529 11.0561 24 11.0561C31.1464 11.0561 36.9401 16.8509 36.9401 23.9999C36.9401 31.1486 31.1464 36.9427 24 36.9427ZM40.0373 34.078L38.7116 33.9918L37.89 35.0339C37.7535 35.2061 37.5994 35.1727 37.5454 34.9608L37.2173 33.6742L35.9719 33.2133C35.766 33.1376 35.7484 32.9808 35.9344 32.8627L37.0571 32.1535L37.1092 30.8264C37.1179 30.6078 37.2626 30.5433 37.4306 30.6835L38.4533 31.5325L39.7298 31.1737C39.942 31.1137 40.0481 31.2314 39.9664 31.4358L39.4755 32.6684L40.2124 33.7724C40.3361 33.9566 40.2562 34.0927 40.0373 34.078ZM42.7421 24.5943L41.5519 25.1819L41.3599 26.4963C41.328 26.7134 41.1776 26.7618 41.025 26.605L40.0969 25.6544L38.7881 25.8787C38.5714 25.9162 38.4784 25.7894 38.5804 25.5937L39.198 24.4181L38.58 23.2424C38.4784 23.0486 38.5714 22.9211 38.7881 22.9578L40.0969 23.1817L41.0235 22.2326C41.1772 22.0743 41.3284 22.1238 41.3595 22.3409L41.5508 23.6546L42.7414 24.2422C42.9401 24.3393 42.9394 24.4972 42.7421 24.5943Z" fill="url(#paint0_linear_251_1310)"/>
</g>
<defs>
<linearGradient id="paint0_linear_251_1310" x1="34.4252" y1="11.2427" x2="12.8778" y2="39.9403" gradientUnits="userSpaceOnUse">
<stop stop-color="#9DE8EE"/>
<stop offset="0.0001" stop-color="#9DE8EE"/>
<stop offset="0.490049" stop-color="#FA7C0B"/>
<stop offset="1" stop-color="#9F8CED"/>
</linearGradient>
<clipPath id="clip0_251_1310">
<rect width="48" height="48" fill="white"/>
</clipPath>
</defs>
</svg>
