<svg width="24" height="25" viewBox="0 0 24 25" fill="none" xmlns="http://www.w3.org/2000/svg">
<path d="M0 24.664L1.687 18.501C0.645998 16.697 0.0989998 14.652 0.0999998 12.555C0.103 5.99905 5.43799 0.664062 11.993 0.664062C15.174 0.665062 18.16 1.90406 20.406 4.15205C22.6509 6.40005 23.8869 9.38804 23.8859 12.566C23.8829 19.123 18.548 24.458 11.993 24.458C10.003 24.457 8.04198 23.958 6.30499 23.01L0 24.664ZM6.59698 20.857C8.27298 21.852 9.87298 22.448 11.989 22.449C17.437 22.449 21.875 18.015 21.878 12.564C21.88 7.10205 17.463 2.67406 11.997 2.67206C6.54498 2.67206 2.11 7.10605 2.108 12.556C2.107 14.781 2.75899 16.447 3.85399 18.19L2.85499 21.838L6.59698 20.857ZM17.984 15.393C17.91 15.269 17.712 15.195 17.414 15.046C17.117 14.897 15.656 14.178 15.383 14.079C15.111 13.98 14.913 13.93 14.714 14.228C14.516 14.525 13.946 15.195 13.773 15.393C13.6 15.591 13.426 15.616 13.129 15.467C12.832 15.318 11.874 15.005 10.739 13.992C9.85598 13.204 9.25898 12.231 9.08598 11.933C8.91298 11.636 9.06798 11.475 9.21598 11.327C9.34998 11.194 9.51298 10.98 9.66198 10.806C9.81298 10.634 9.86198 10.51 9.96198 10.311C10.061 10.113 10.012 9.93904 9.93698 9.79004C9.86198 9.64204 9.26798 8.17905 9.02098 7.58405C8.77898 7.00505 8.53398 7.08305 8.35198 7.07405L7.78198 7.06405C7.58398 7.06405 7.26198 7.13805 6.98998 7.43605C6.71798 7.73405 5.94999 8.45205 5.94999 9.91504C5.94999 11.378 7.01498 12.791 7.16298 12.989C7.31198 13.187 9.25798 16.189 12.239 17.476C12.948 17.782 13.502 17.965 13.933 18.102C14.645 18.328 15.293 18.296 15.805 18.22C16.376 18.135 17.563 17.501 17.811 16.807C18.059 16.112 18.059 15.517 17.984 15.393Z" fill="white"/>
</svg>
