<svg width="33" height="32" viewBox="0 0 33 32" fill="none" xmlns="http://www.w3.org/2000/svg">
<path d="M5.81197 0H27.0085C30.2222 0 32.8205 2.59829 32.8205 5.81197V26.188C32.8205 29.4017 30.2222 32 27.0085 32H5.81197C2.59829 32 0 29.4017 0 26.188V5.81197C0 2.59829 2.59829 0 5.81197 0Z" fill="#00005B"/>
<path d="M13.183 19.1452H8.0958L7.05648 22.3726C7.02913 22.4957 6.91973 22.5777 6.79665 22.564H4.22571C4.07528 22.564 4.03426 22.482 4.07528 22.3179L8.4787 9.69567C8.51973 9.55892 8.56075 9.43584 8.61546 9.27174C8.67016 8.98456 8.69751 8.6837 8.69751 8.38285C8.68383 8.31447 8.73853 8.2461 8.80691 8.23242H8.84793H12.3488C12.4445 8.23242 12.5129 8.27345 12.5266 8.34182L17.518 22.2905C17.559 22.441 17.518 22.5093 17.3813 22.5093H14.5231C14.4274 22.523 14.3317 22.4546 14.3043 22.3589L13.183 19.0769V19.1452ZM8.88896 16.4239H12.3625C12.2804 16.1367 12.171 15.7948 12.0479 15.4393C11.9249 15.07 11.8018 14.6734 11.6787 14.2632C11.542 13.8393 11.4189 13.429 11.2821 13.0051C11.1454 12.5811 11.0223 12.1846 10.9129 11.788C10.8035 11.4051 10.7078 11.0495 10.612 10.7213H10.5847C10.4616 11.3093 10.3112 11.8974 10.1197 12.4854C9.9146 13.1418 9.70947 13.8256 9.49067 14.5093C9.31289 15.2068 9.09409 15.8495 8.88896 16.4239Z" fill="#9999FF"/>
<path d="M25.5726 17.9145H21.2376C21.2923 18.3384 21.429 18.7623 21.6615 19.1316C21.9077 19.5008 22.2495 19.788 22.6598 19.9521C23.2068 20.1846 23.8085 20.3076 24.4102 20.294C24.8889 20.2803 25.3675 20.2393 25.8324 20.1435C26.2564 20.0888 26.6666 19.9794 27.0495 19.829C27.1179 19.7743 27.1589 19.8017 27.1589 19.9384V22.0307C27.1589 22.0854 27.1453 22.1401 27.1316 22.1948C27.1042 22.2358 27.0769 22.2632 27.0359 22.2905C26.5983 22.482 26.147 22.6187 25.6683 22.7008C25.0256 22.8239 24.3829 22.8786 23.7265 22.8649C22.6871 22.8649 21.8119 22.7008 21.1008 22.3863C20.4307 22.0991 19.8427 21.6478 19.3777 21.0871C18.9401 20.5538 18.6256 19.9521 18.4342 19.2957C18.2427 18.6529 18.147 17.9829 18.147 17.2991C18.147 16.5606 18.2564 15.8358 18.4889 15.1247C18.7077 14.441 19.0495 13.8119 19.5145 13.2512C19.9658 12.7042 20.5265 12.2666 21.1692 11.9521C21.8119 11.6376 22.5777 11.5282 23.453 11.5282C24.1777 11.5145 24.9025 11.6512 25.5726 11.9521C26.1333 12.1982 26.6256 12.5675 27.0085 13.0461C27.3641 13.5111 27.6512 14.0307 27.829 14.6051C28.0068 15.1521 28.0889 15.7128 28.0889 16.2735C28.0889 16.6017 28.0752 16.8888 28.0615 17.1487C28.0342 17.4085 28.0205 17.5999 28.0068 17.723C27.9931 17.8188 27.9111 17.9008 27.8153 17.9008C27.7333 17.9008 27.5829 17.9145 27.3641 17.9282C27.1453 17.9555 26.8854 17.9692 26.5709 17.9692C26.2564 17.9692 25.9282 17.9145 25.5726 17.9145ZM21.2376 15.9179H24.123C24.4786 15.9179 24.7384 15.9179 24.9025 15.9042C25.0119 15.8905 25.1213 15.8632 25.2171 15.7948V15.6581C25.2171 15.4803 25.1897 15.3162 25.135 15.1521C24.8889 14.3863 24.1641 13.8666 23.3572 13.894C22.6051 13.8529 21.894 14.2495 21.5384 14.9333C21.3743 15.2478 21.2786 15.576 21.2376 15.9179Z" fill="#9999FF"/>
</svg>
