<svg width="33" height="32" viewBox="0 0 33 32" fill="none" xmlns="http://www.w3.org/2000/svg">
<path d="M5.81197 0H27.0085C30.2222 0 32.8205 2.59829 32.8205 5.81197V26.188C32.8205 29.4017 30.2222 32 27.0085 32H5.81197C2.59829 32 0 29.4017 0 26.188V5.81197C0 2.59829 2.59829 0 5.81197 0Z" fill="#330000"/>
<path d="M15.9042 19.2H10.817L9.77767 22.4136C9.75032 22.5367 9.64092 22.6188 9.51784 22.6051H6.9469C6.79648 22.6051 6.75545 22.523 6.79648 22.3589L11.1999 9.682C11.2409 9.54525 11.2819 9.39482 11.3366 9.23072C11.3913 8.94354 11.4187 8.64269 11.4187 8.34183C11.405 8.27346 11.4597 8.20508 11.5281 8.19141C11.5418 8.19141 11.5555 8.19141 11.5691 8.19141H15.07C15.1794 8.19141 15.2341 8.23243 15.2478 8.30081L20.2392 22.3863C20.2802 22.5367 20.2392 22.6051 20.1025 22.6051H17.2443C17.1486 22.6188 17.0529 22.5504 17.0255 22.4547L15.9042 19.2ZM11.6102 16.4239H15.0837C15.0016 16.1367 14.8922 15.7948 14.7691 15.4393C14.646 15.07 14.523 14.6735 14.3999 14.2632C14.2631 13.8393 14.1401 13.429 14.0033 13.0051C13.8666 12.5811 13.7435 12.1846 13.6341 11.788C13.5247 11.4051 13.429 11.0495 13.3332 10.7213H13.3059C13.1828 11.3094 13.0324 11.8974 12.8409 12.4854C12.6358 13.1418 12.4307 13.8256 12.2119 14.5094C12.0204 15.2068 11.8153 15.8495 11.6102 16.4239Z" fill="#FF9A00"/>
<path d="M23.2204 10.5299C22.7692 10.5436 22.3315 10.3658 22.0033 10.0513C21.6888 9.70938 21.5247 9.2581 21.5384 8.79314C21.5247 8.32818 21.7025 7.89057 22.0307 7.57604C22.3589 7.26151 22.7965 7.09741 23.2478 7.09741C23.7811 7.09741 24.1914 7.26151 24.4922 7.57604C24.7931 7.90425 24.9572 8.34186 24.9435 8.79314C24.9572 9.2581 24.7931 9.70938 24.4649 10.0513C24.1504 10.3795 23.6854 10.5572 23.2204 10.5299ZM21.6888 22.4V11.8701C21.6888 11.7333 21.7435 11.6786 21.8666 11.6786H24.5743C24.6974 11.6786 24.7521 11.747 24.7521 11.8701V22.4C24.7521 22.5504 24.6974 22.6188 24.5743 22.6188H21.8939C21.7572 22.6188 21.6888 22.5367 21.6888 22.4Z" fill="#FF9A00"/>
</svg>
