<svg width="29" height="32" viewBox="0 0 29 32" fill="none" xmlns="http://www.w3.org/2000/svg">
<path d="M28.4704 9.40799C28.4702 8.86993 28.3551 8.39448 28.1224 7.98642C27.8938 7.58516 27.5515 7.24884 27.0923 6.98293C23.3019 4.79737 19.5078 2.6185 15.7187 0.430714C14.6971 -0.159037 13.7067 -0.137537 12.6927 0.460681C11.184 1.35043 3.63053 5.67799 1.37969 6.9817C0.45273 7.51832 0.001671 8.33956 0.0014482 9.40699C0 13.8023 0.0014482 18.1975 0 22.5928C0.0002228 23.1191 0.110398 23.5853 0.332864 23.9872C0.561568 24.4007 0.908691 24.7462 1.37846 25.0181C3.62942 26.3219 11.1839 30.6491 12.6923 31.539C13.7067 32.1376 14.6971 32.159 15.719 31.569C19.5083 29.3811 23.3026 27.2024 27.0935 25.0168C27.5633 24.745 27.9104 24.3992 28.1391 23.9861C28.3612 23.5842 28.4716 23.118 28.4719 22.5916C28.4719 22.5916 28.4719 13.8034 28.4704 9.40799Z" fill="#5C8DBC"/>
<path d="M14.2794 15.9572L0.332764 23.9873C0.561468 24.4007 0.908591 24.7463 1.37837 25.0182C3.62932 26.3219 11.1838 30.6492 12.6922 31.5391C13.7066 32.1377 14.697 32.1591 15.7189 31.5691C19.5082 29.3812 23.3025 27.2024 27.0934 25.0169C27.5632 24.7451 27.9103 24.3993 28.139 23.9862L14.2794 15.9572Z" fill="#1A4674"/>
<path d="M10.1487 18.3357C10.9602 19.7525 12.4859 20.7081 14.236 20.7081C15.9969 20.7081 17.5312 19.7404 18.3386 18.3085L14.2795 15.9572L10.1487 18.3357Z" fill="#1A4674"/>
<path d="M28.4705 9.40809C28.4702 8.87003 28.3552 8.39457 28.1225 7.98651L14.2795 15.9572L28.1392 23.9863C28.3613 23.5843 28.4717 23.1181 28.4719 22.5918C28.4719 22.5918 28.4719 13.8035 28.4705 9.40809Z" fill="#1B598E"/>
<path d="M27.7082 16.5311H26.6252V17.6143H25.5419V16.5311H24.459V15.4481H25.5419V14.3651H26.6252V15.4481H27.7082V16.5311ZM23.7563 16.5311H22.6734V17.6143H21.5904V16.5311H20.5073V15.4481H21.5904V14.3651H22.6734V15.4481H23.7563V16.5311Z" fill="white"/>
<path d="M18.3385 18.3085C17.5311 19.7404 15.9968 20.7082 14.2359 20.7082C12.4858 20.7082 10.9601 19.7526 10.1486 18.3358C9.74089 17.6249 9.52679 16.8195 9.52763 16C9.52763 13.3998 11.6357 11.2919 14.2359 11.2919C15.9747 11.2919 17.4923 12.2355 18.3079 13.6378L22.4231 11.2681C20.7874 8.44458 17.7336 6.54498 14.2359 6.54498C9.01386 6.54498 4.78076 10.7782 4.78076 16C4.78076 17.7131 5.2365 19.3196 6.03301 20.7053C7.66458 23.5437 10.7271 25.455 14.2359 25.455C17.7511 25.455 20.8184 23.5361 22.4476 20.6892L18.3385 18.3085Z" fill="white"/>
</svg>
