<svg width="29" height="32" viewBox="0 0 29 32" fill="none" xmlns="http://www.w3.org/2000/svg">
<path d="M28.216 0L25.6454 28.7967L14.0907 32L2.56782 28.8012L0 0H28.216Z" fill="#264DE4"/>
<path d="M23.4447 26.963L25.6414 2.35492H14.1079V29.5515L23.4447 26.963Z" fill="#2965F1"/>
<path d="M5.88672 13.0369L6.20331 16.5692H14.108V13.0369H5.88672Z" fill="#EBEBEB"/>
<path d="M14.1079 5.88727H14.0957H5.25049L5.57159 9.41965H14.1079V5.88727Z" fill="#EBEBEB"/>
<path d="M14.108 25.8858V22.2107L14.0925 22.2148L10.1585 21.1525L9.907 18.3353H7.99539H6.36108L6.85596 23.8816L14.0917 25.8903L14.108 25.8858Z" fill="#EBEBEB"/>
<path d="M18.4454 16.5691L18.0354 21.1503L14.0957 22.2137V25.8886L21.3372 23.8816L21.3903 23.2849L22.2204 13.9854L22.3066 13.0368L22.9443 5.88727H14.0957V9.41965H19.0731L18.7517 13.0368H14.0957V16.5691H18.4454Z" fill="white"/>
</svg>
