<svg width="32" height="32" viewBox="0 0 32 32" fill="none" xmlns="http://www.w3.org/2000/svg">
<g clip-path="url(#clip0_83_460)">
<path d="M8.60103 8.65883L6.54492 6.60272V21.4299L6.57388 22.1249C6.57388 22.4434 6.6318 22.8199 6.74764 23.1964L23.0227 28.9303L27.077 27.1348L8.60103 8.65883Z" fill="#00C4B3"/>
<path d="M27.0768 27.1348L23.0225 28.9303L6.77637 23.1964C7.09492 24.3837 7.76098 25.7158 8.51392 26.4688L13.8135 31.7393L25.6289 31.7683L27.0768 27.1348Z" fill="#22D3C5"/>
<path d="M6.60279 6.60272L0.289671 16.1593C-0.231596 16.7095 0.0290375 17.8679 0.868857 18.7367L4.51773 22.4145L6.80551 23.2253C6.71863 22.8489 6.63175 22.4724 6.63175 22.1538L6.60279 21.4588V6.60272Z" fill="#0075C9"/>
<path d="M23.1386 6.77645C22.7621 6.68957 22.3856 6.63165 22.0671 6.60269L21.3431 6.57373H6.54492L27.077 27.1059L28.8725 23.0516L23.1386 6.77645Z" fill="#0075C9"/>
<path d="M26.411 8.51405C25.658 7.7611 24.3549 7.06608 23.1386 6.77649L28.8725 23.0516L27.077 27.1059L31.4789 25.6869V13.6109L26.411 8.51405Z" fill="#00A8E1"/>
<path d="M22.3276 4.51766L18.6498 0.868796C17.81 0.0289764 16.6516 -0.231657 16.0724 0.28961L6.51587 6.60273H21.3141L22.038 6.63169C22.3566 6.63169 22.7331 6.68961 23.1095 6.80544L22.3276 4.51766Z" fill="#00C4B3"/>
</g>
<defs>
<clipPath id="clip0_83_460">
<rect width="32" height="32" fill="white"/>
</clipPath>
</defs>
</svg>
