<svg width="35" height="32" viewBox="0 0 35 32" fill="none" xmlns="http://www.w3.org/2000/svg">
<path d="M12 32C14.76 32 17 29.536 17 26.5V21H12C9.24 21 7 23.464 7 26.5C7 29.536 9.24 32 12 32Z" fill="#0ACF83"/>
<path d="M7 16C7 13.24 9.24 11 12 11H17V21H12C9.24 21 7 18.76 7 16Z" fill="#A259FF"/>
<path d="M7 5.5C7 2.464 9.24 0 12 0H17V11H12C9.24 11 7 8.536 7 5.5Z" fill="#F24E1E"/>
<path d="M17 0H22.5C25.536 0 28 2.464 28 5.5C28 8.536 25.536 11 22.5 11H17V0Z" fill="#FF7262"/>
<path d="M28 16C28 18.76 25.536 21 22.5 21C19.464 21 17 18.76 17 16C17 13.24 19.464 11 22.5 11C25.536 11 28 13.24 28 16Z" fill="#1ABCFE"/>
</svg>
