<svg width="24" height="32" viewBox="0 0 24 32" fill="none" xmlns="http://www.w3.org/2000/svg">
<path d="M15.1705 11.5584L11.9701 14.5383L8.99927 8.54342L10.534 5.09648C10.9219 4.40891 11.5563 4.39983 11.9442 5.09648L15.1705 11.5584Z" fill="#FFA000"/>
<path d="M11.9716 14.5369L0 25.6717L9.00072 8.54333L11.9716 14.5369Z" fill="#F57F17"/>
<path d="M18.6799 7.00087C19.2533 6.4547 19.8436 6.63892 19.9928 7.41471L23.105 25.5212L12.7823 31.7184C12.4204 31.9208 11.4604 32 11.4604 32C11.4604 32 10.5873 31.8936 10.2526 31.7094L0 25.6717L18.6799 7.00087Z" fill="#FFCA28"/>
<path d="M9.0007 8.54339L0 25.6717L4.01127 0.636323C4.16176 -0.139465 4.60154 -0.218601 4.99852 0.468971L9.0007 8.54339Z" fill="#FFA000"/>
</svg>
