<svg width="32" height="32" viewBox="0 0 32 32" fill="none" xmlns="http://www.w3.org/2000/svg">
<path d="M31.3971 14.5745L17.4253 0.60348C16.6212 -0.20116 15.3162 -0.20116 14.511 0.60348L11.6097 3.50478L15.2902 7.18523C16.1454 6.89622 17.1262 7.0901 17.808 7.77186C18.493 8.458 18.6855 9.44714 18.3895 10.3052L21.9364 13.8522C22.7945 13.5566 23.7847 13.7478 24.4701 14.4344C25.428 15.3919 25.428 16.9438 24.4701 17.9019C23.5119 18.8602 21.96 18.8602 21.0014 17.9019C20.2809 17.1807 20.1029 16.1225 20.4676 15.2349L17.1598 11.9271L17.1594 20.6319C17.3992 20.7504 17.6182 20.907 17.808 21.0956C18.7658 22.0531 18.7658 23.6052 17.808 24.564C16.8498 25.5218 15.2972 25.5218 14.3404 24.564C13.3825 23.6052 13.3825 22.0533 14.3404 21.0957C14.5699 20.8661 14.8427 20.6842 15.143 20.5606V11.7747C14.8423 11.6519 14.5694 11.4699 14.3404 11.2396C13.6146 10.5148 13.4401 9.44989 13.812 8.55875L10.1839 4.93031L0.603761 14.5099C-0.201254 15.3153 -0.201254 16.6204 0.603761 17.4252L14.5758 31.3964C15.3802 32.2012 16.6849 32.2012 17.4903 31.3964L31.397 17.49C32.2017 16.685 32.2018 15.3791 31.3971 14.5745Z" fill="#DE4C36"/>
</svg>
