<svg width="33" height="32" viewBox="0 0 33 32" fill="none" xmlns="http://www.w3.org/2000/svg">
<path d="M16.405 0C7.34595 0 0 7.34466 0 16.405C0 23.6533 4.70053 29.8026 11.2188 31.9718C12.0386 32.1236 12.3397 31.6159 12.3397 31.1826C12.3397 30.7915 12.3244 29.4991 12.3174 28.1283C7.75342 29.1207 6.79039 26.1927 6.79039 26.1927C6.04415 24.2965 4.96892 23.7924 4.96892 23.7924C3.48056 22.7742 5.08111 22.795 5.08111 22.795C6.7285 22.9108 7.59594 24.4856 7.59594 24.4856C9.05908 26.9936 11.4337 26.2685 12.3698 25.8495C12.517 24.789 12.9422 24.0654 13.4113 23.6558C9.76762 23.2408 5.9371 21.8342 5.9371 15.5483C5.9371 13.7573 6.57797 12.2938 7.62746 11.1449C7.45711 10.7317 6.89563 9.0632 7.78636 6.80351C7.78636 6.80351 9.16394 6.36259 12.2989 8.48512C13.6074 8.12152 15.0108 7.93934 16.405 7.93316C17.7992 7.93934 19.2037 8.12152 20.5147 8.48512C23.646 6.36259 25.0216 6.80351 25.0216 6.80351C25.9146 9.0632 25.3528 10.7317 25.1825 11.1449C26.2343 12.2938 26.8708 13.7572 26.8708 15.5483C26.8708 21.8491 23.033 23.2366 19.3801 23.6426C19.9684 24.1518 20.4927 25.1502 20.4927 26.6806C20.4927 28.8756 20.4737 30.6422 20.4737 31.1826C20.4737 31.6192 20.769 32.1307 21.6006 31.9696C28.1153 29.798 32.8099 23.6509 32.8099 16.405C32.8099 7.34466 25.465 0 16.405 0Z" fill="white"/>
<path d="M6.14422 23.3694C6.1082 23.4508 5.97979 23.4753 5.8631 23.4194C5.74408 23.3659 5.67718 23.2547 5.71578 23.1729C5.75116 23.089 5.87956 23.0656 5.99832 23.122C6.11759 23.1754 6.18552 23.2875 6.14422 23.3694ZM6.95119 24.0894C6.87296 24.1619 6.71998 24.1282 6.61615 24.0136C6.50885 23.8992 6.48878 23.7464 6.56816 23.6726C6.64883 23.6002 6.79718 23.634 6.90474 23.7485C7.01205 23.8642 7.03289 24.0162 6.95106 24.0895L6.95119 24.0894ZM7.50482 25.0106C7.40421 25.0804 7.23978 25.015 7.13826 24.8691C7.03778 24.7233 7.03778 24.5483 7.14045 24.4782C7.24235 24.4081 7.40421 24.4711 7.50714 24.6158C7.6075 24.7642 7.6075 24.9392 7.50469 25.0107L7.50482 25.0106ZM8.44097 26.0776C8.35103 26.1766 8.15958 26.1501 8.01934 26.0148C7.87601 25.8825 7.836 25.6948 7.92619 25.5956C8.01716 25.4963 8.20976 25.5242 8.35103 25.6584C8.49346 25.7904 8.53695 25.9795 8.4411 26.0776H8.44097ZM9.65091 26.4378C9.61141 26.5662 9.42691 26.6246 9.24112 26.5701C9.05559 26.5139 8.93413 26.3633 8.97157 26.2335C9.01017 26.1042 9.19544 26.0434 9.38265 26.1018C9.56792 26.1577 9.68963 26.3071 9.65104 26.4378H9.65091ZM11.0281 26.5906C11.0327 26.7259 10.8751 26.8381 10.6801 26.8405C10.4839 26.8448 10.3252 26.7353 10.3232 26.6023C10.3232 26.4656 10.4772 26.3545 10.6733 26.3512C10.8683 26.3474 11.0281 26.4561 11.0281 26.5906ZM12.3809 26.5387C12.4043 26.6707 12.2687 26.8063 12.075 26.8423C11.8846 26.8771 11.7083 26.7956 11.684 26.6648C11.6603 26.5294 11.7985 26.394 11.9886 26.3588C12.1826 26.3251 12.3562 26.4045 12.3809 26.5387Z" fill="white"/>
</svg>
