<svg width="32" height="32" viewBox="0 0 32 32" fill="none" xmlns="http://www.w3.org/2000/svg">
<path d="M32 0H0V32H32V0Z" fill="#F7DF1E"/>
<path d="M21.4958 25.0001C22.1403 26.0526 22.9789 26.8262 24.4621 26.8262C25.7081 26.8262 26.504 26.2034 26.504 25.343C26.504 24.3119 25.6862 23.9467 24.3148 23.3468L23.5631 23.0243C21.3932 22.0998 19.9516 20.9417 19.9516 18.4935C19.9516 16.2382 21.67 14.5214 24.3554 14.5214C26.2673 14.5214 27.6418 15.1868 28.6323 16.929L26.2907 18.4325C25.7751 17.5081 25.2189 17.1439 24.3554 17.1439C23.4747 17.1439 22.9165 17.7026 22.9165 18.4325C22.9165 19.3346 23.4752 19.6998 24.7653 20.2585L25.5171 20.5806C28.072 21.6762 29.5146 22.7931 29.5146 25.3044C29.5146 28.0117 27.3878 29.4949 24.5317 29.4949C21.7391 29.4949 19.9349 28.1641 19.0521 26.4198L21.4958 25.0001ZM10.8733 25.2607C11.3457 26.0988 11.7754 26.8074 12.8085 26.8074C13.7965 26.8074 14.4197 26.4208 14.4197 24.9178V14.6931H17.4267V24.9585C17.4267 28.0721 15.6012 29.4893 12.9365 29.4893C10.5289 29.4893 9.13462 28.2433 8.42554 26.7426L10.8733 25.2607Z" fill="black"/>
</svg>
