<svg width="15" height="32" viewBox="0 0 15 32" fill="none" xmlns="http://www.w3.org/2000/svg">
<path d="M7.08663 0.0874023L7.94057 1.69128C8.13255 1.98726 8.34054 2.24924 8.58552 2.49322C9.30375 3.2025 9.97323 3.9595 10.5894 4.75905C12.0363 6.65891 13.0122 8.76875 13.7092 11.0506C14.1271 12.4445 14.3541 13.8744 14.3711 15.3203C14.4411 19.6429 12.9592 23.3547 9.97142 26.4394C9.48543 26.9286 8.96039 27.3774 8.40153 27.7813C8.10555 27.7813 7.96556 27.5543 7.84357 27.3454C7.62142 26.9578 7.47356 26.5322 7.40761 26.0905C7.30261 25.5675 7.23362 25.0445 7.26761 24.5046V24.2606C7.24362 24.2086 6.98263 0.210393 7.08663 0.0874023Z" fill="#599636"/>
<path d="M7.08656 0.0344005C7.05156 -0.0355943 7.01657 0.0174017 6.98157 0.0513992C6.99857 0.401373 6.87657 0.71335 6.68559 1.01133C6.4756 1.30731 6.19763 1.53429 5.91865 1.77827C4.36876 3.12017 3.14885 4.74105 2.17192 6.55392C0.872013 8.99374 0.202062 11.6085 0.0120758 14.3613C-0.0749178 15.3543 0.326053 18.858 0.63903 19.8689C1.49297 22.5527 3.02686 24.8016 5.01371 26.7534C5.50168 27.2234 6.02364 27.6594 6.5636 28.0783C6.72059 28.0783 6.73759 27.9383 6.77358 27.8343C6.84241 27.6118 6.89488 27.3846 6.93057 27.1544L7.28055 24.5406L7.08656 0.0344005Z" fill="#6CAC48"/>
<path d="M7.94038 28.8433C7.97538 28.4433 8.16736 28.1113 8.37635 27.7803C8.16636 27.6933 8.01037 27.5204 7.88838 27.3274C7.78319 27.1447 7.69612 26.9521 7.6284 26.7524C7.38442 26.0205 7.33242 25.2525 7.26243 24.5046V24.0516C7.17543 24.1216 7.15743 24.7136 7.15743 24.8016C7.10655 25.5921 7.00165 26.3782 6.84346 27.1544C6.79146 27.4684 6.75646 27.7813 6.56348 28.0603C6.56348 28.0953 6.56348 28.1303 6.58048 28.1823C6.89445 29.1062 6.98045 30.0472 7.03344 31.0061V31.3561C7.03344 31.774 7.01644 31.686 7.36342 31.826C7.50341 31.878 7.6594 31.896 7.79939 32C7.90438 32 7.92138 31.913 7.92138 31.843L7.86938 31.2681V29.6642C7.85239 29.3842 7.90438 29.1062 7.93938 28.8443L7.94038 28.8433Z" fill="#C2BFBF"/>
</svg>
