<svg width="30" height="32" viewBox="0 0 30 32" fill="none" xmlns="http://www.w3.org/2000/svg">
<path d="M13.2091 0.341395C14.0026 -0.112772 15.036 -0.114823 15.8288 0.341395C19.8172 2.59502 23.8068 4.84511 27.7944 7.10011C28.5445 7.52259 29.0462 8.3573 29.0385 9.22153V22.7802C29.0441 23.6802 28.4928 24.5349 27.7015 24.9478C23.7263 27.189 19.7531 29.4329 15.7786 31.6741C14.9687 32.1372 13.9145 32.1015 13.1299 31.6005C11.9381 30.9096 10.7443 30.2222 9.55242 29.532C9.30887 29.3868 9.03432 29.2712 8.86234 29.0351C9.01437 28.8301 9.28619 28.8046 9.50706 28.7151C10.0045 28.557 10.4614 28.303 10.9185 28.0566C11.034 27.9775 11.1751 28.0079 11.2859 28.0786C12.305 28.663 13.3151 29.2643 14.3376 29.843C14.5558 29.9689 14.7767 29.8017 14.9631 29.6978C18.864 27.4931 22.7698 25.2966 26.67 23.0912C26.8145 23.0217 26.8944 22.8683 26.8827 22.71C26.8854 18.2373 26.8834 13.7638 26.8841 9.29105C26.9006 9.11143 26.7966 8.94629 26.6342 8.87278C22.6728 6.64184 18.7134 4.40747 14.7526 2.17596C14.684 2.12878 14.6027 2.10347 14.5194 2.10334C14.4361 2.10322 14.3548 2.1283 14.286 2.17527C10.3252 4.40747 6.36653 6.64389 2.40576 8.87472C2.24392 8.94834 2.13531 9.11075 2.15457 9.29105C2.15525 13.7638 2.15457 18.2373 2.15457 22.7107C2.1477 22.7879 2.16467 22.8654 2.20318 22.9327C2.24169 23 2.2999 23.0539 2.36997 23.0871C3.42692 23.6865 4.48524 24.2816 5.54287 24.8789C6.1387 25.1997 6.87027 25.3902 7.52673 25.1445C8.10604 24.9367 8.51211 24.3456 8.50106 23.7305C8.50653 19.2839 8.49832 14.8366 8.50516 10.3906C8.49068 10.1932 8.67794 10.0301 8.86986 10.0487C9.37771 10.0453 9.88624 10.0419 10.3941 10.0501C10.6061 10.0453 10.7519 10.2578 10.7257 10.4567C10.7237 14.9315 10.7312 19.4064 10.7223 23.8811C10.7237 25.0737 10.2337 26.3714 9.13062 26.9549C7.77165 27.6589 6.09198 27.5096 4.74942 26.8345C3.58716 26.2544 2.47802 25.5698 1.33639 24.9484C0.543047 24.5377 -0.00548639 23.6796 9.80933e-05 22.7803V9.22153C-0.00822165 8.33941 0.513415 7.48954 1.28681 7.07321C5.26137 4.83018 9.23524 2.58545 13.2091 0.341395Z" fill="#8CC84B"/>
<path d="M16.6765 9.73356C18.41 9.62198 20.2657 9.66745 21.8256 10.5214C23.0334 11.1758 23.7029 12.5493 23.7242 13.891C23.6905 14.072 23.5013 14.1719 23.3285 14.1594C22.8256 14.1587 22.3225 14.1663 21.8196 14.156C21.6062 14.1642 21.4822 13.9675 21.4555 13.7789C21.3109 13.1369 20.9608 12.5011 20.3566 12.1914C19.429 11.727 18.3534 11.7504 17.342 11.76C16.6036 11.7992 15.8095 11.8632 15.184 12.2974C14.7037 12.6263 14.5578 13.2903 14.7292 13.825C14.8908 14.209 15.3341 14.3329 15.6967 14.4471C17.7858 14.9935 19.9995 14.9391 22.0487 15.6581C22.8971 15.9513 23.727 16.5211 24.0174 17.4094C24.3972 18.5999 24.2307 20.0229 23.3837 20.9787C22.6968 21.7652 21.6964 22.1932 20.6986 22.4257C19.3712 22.7217 17.9936 22.7292 16.6456 22.5978C15.3781 22.4533 14.059 22.1203 13.0804 21.2566C12.2437 20.5301 11.835 19.398 11.8756 18.3054C11.8852 18.1209 12.069 17.9922 12.2457 18.0074C12.7522 18.0033 13.2587 18.0019 13.7652 18.0081C13.9675 17.9936 14.1174 18.1684 14.1278 18.3591C14.2213 18.9708 14.4511 19.6127 14.9845 19.9754C16.0139 20.6395 17.3055 20.594 18.4842 20.6126C19.4607 20.5693 20.5568 20.5562 21.3537 19.9108C21.7741 19.5427 21.8987 18.9268 21.7851 18.3969C21.662 17.9496 21.194 17.7411 20.7922 17.6048C18.7299 16.9525 16.4914 17.1892 14.4491 16.4515C13.62 16.1585 12.8182 15.6044 12.4996 14.7526C12.0552 13.5471 12.2588 12.0559 13.1946 11.1324C14.1071 10.2138 15.4242 9.86006 16.6765 9.73344V9.73356Z" fill="#8CC84B"/>
</svg>
