<svg width="33" height="32" viewBox="0 0 33 32" fill="none" xmlns="http://www.w3.org/2000/svg">
<path d="M5.81197 0H27.0085C30.2222 0 32.8205 2.59829 32.8205 5.81197V26.188C32.8205 29.4017 30.2222 32 27.0085 32H5.81197C2.59829 32 0 29.4017 0 26.188V5.81197C0 2.59829 2.59829 0 5.81197 0Z" fill="#001E36"/>
<path d="M7.38452 22.441V8.3692C7.38452 8.27347 7.42555 8.21877 7.52127 8.21877C7.75375 8.21877 7.97256 8.21877 8.28709 8.20509C8.61529 8.19142 8.95717 8.19142 9.3264 8.17774C9.69563 8.16407 10.0922 8.16407 10.5161 8.15039C10.9401 8.13672 11.3503 8.13672 11.7606 8.13672C12.882 8.13672 13.8119 8.27347 14.5777 8.56065C15.2614 8.79313 15.8905 9.17604 16.4102 9.68202C16.8478 10.1196 17.1897 10.653 17.4085 11.241C17.6136 11.8154 17.723 12.4034 17.723 13.0188C17.723 14.1948 17.4495 15.1658 16.9025 15.9316C16.3555 16.6974 15.5897 17.2718 14.7008 17.6C13.7708 17.9418 12.7452 18.0649 11.6238 18.0649C11.2956 18.0649 11.0768 18.0649 10.9401 18.0512C10.8033 18.0376 10.6119 18.0376 10.352 18.0376V22.4273C10.3657 22.523 10.2973 22.6051 10.2016 22.6188C10.1879 22.6188 10.1743 22.6188 10.1469 22.6188H7.54862C7.43922 22.6188 7.38452 22.5641 7.38452 22.441ZM10.3657 10.8581V15.453C10.5572 15.4666 10.7349 15.4803 10.8991 15.4803H11.6238C12.1572 15.4803 12.6905 15.3983 13.1965 15.2342C13.6341 15.1111 14.017 14.8512 14.3179 14.5094C14.605 14.1675 14.7418 13.7025 14.7418 13.1008C14.7555 12.6769 14.6461 12.253 14.4273 11.8837C14.1948 11.5282 13.8666 11.2547 13.47 11.1042C12.964 10.8991 12.417 10.8171 11.8563 10.8307C11.5008 10.8307 11.1862 10.8307 10.9264 10.8444C10.6529 10.8307 10.4614 10.8444 10.3657 10.8581Z" fill="#31A8FF"/>
<path d="M26.2564 14.6188C25.8461 14.4 25.4085 14.2496 24.9436 14.1538C24.4376 14.0444 23.9316 13.9761 23.412 13.9761C23.1384 13.9624 22.8513 14.0034 22.5914 14.0718C22.4137 14.1128 22.2632 14.2085 22.1675 14.3453C22.0991 14.4547 22.0581 14.5914 22.0581 14.7145C22.0581 14.8376 22.1128 14.9607 22.1949 15.0701C22.3179 15.2205 22.482 15.3436 22.6598 15.4393C22.9743 15.6034 23.3026 15.7538 23.6308 15.8906C24.3692 16.1367 25.0803 16.4786 25.7367 16.8889C26.188 17.1761 26.5573 17.559 26.8171 18.0239C27.0359 18.4615 27.1453 18.9402 27.1316 19.4325C27.1453 20.0752 26.9538 20.7179 26.5983 21.2513C26.2154 21.7983 25.682 22.2222 25.0667 22.4684C24.3966 22.7555 23.5761 22.906 22.5914 22.906C21.9624 22.906 21.347 22.8513 20.7316 22.7282C20.253 22.6461 19.7743 22.4957 19.3367 22.2906C19.241 22.2359 19.1726 22.1402 19.1863 22.0308V19.6513C19.1863 19.6102 19.2 19.5555 19.241 19.5282C19.282 19.5008 19.3231 19.5145 19.3641 19.5419C19.8974 19.8564 20.4581 20.0752 21.0598 20.212C21.5795 20.3487 22.1265 20.4171 22.6735 20.4171C23.1932 20.4171 23.5624 20.3487 23.8085 20.2256C24.0273 20.1299 24.1778 19.8974 24.1778 19.6513C24.1778 19.4598 24.0684 19.282 23.8496 19.1043C23.6308 18.9265 23.1795 18.7214 22.5094 18.4615C21.812 18.2154 21.1692 17.8872 20.5675 17.4769C20.1436 17.1761 19.788 16.7795 19.5282 16.3145C19.3094 15.8769 19.2 15.3983 19.2137 14.9197C19.2137 14.3316 19.3778 13.7709 19.6786 13.2649C20.0205 12.7179 20.5265 12.2803 21.1145 12.0068C21.7573 11.6786 22.5641 11.5282 23.535 11.5282C24.0957 11.5282 24.6701 11.5692 25.2308 11.6513C25.641 11.706 26.0376 11.8154 26.4068 11.9658C26.4615 11.9795 26.5162 12.0342 26.5436 12.0889C26.5573 12.1436 26.5709 12.1983 26.5709 12.253V14.482C26.5709 14.5367 26.5436 14.5914 26.5026 14.6188C26.3795 14.6461 26.3111 14.6461 26.2564 14.6188Z" fill="#31A8FF"/>
</svg>
