<svg width="33" height="32" viewBox="0 0 33 32" fill="none" xmlns="http://www.w3.org/2000/svg">
<path d="M15.9677 0C7.80167 0 8.31155 3.54129 8.31155 3.54129L8.32061 7.21017H16.1133V8.31166H5.22546C5.22546 8.31166 0 7.71904 0 15.9585C0 24.1983 4.56091 23.906 4.56091 23.906H7.28285V20.0825C7.28285 20.0825 7.13611 15.5216 11.771 15.5216H19.5C19.5 15.5216 23.8423 15.5917 23.8423 11.3248V4.2697C23.8423 4.2697 24.5018 0 15.9677 0ZM11.6708 2.46725C11.855 2.46708 12.0373 2.50323 12.2075 2.57363C12.3777 2.64402 12.5323 2.74728 12.6625 2.87749C12.7927 3.0077 12.896 3.16231 12.9664 3.33247C13.0367 3.50263 13.0729 3.68501 13.0727 3.86915C13.0729 4.0533 13.0367 4.23567 12.9664 4.40584C12.896 4.576 12.7927 4.73061 12.6625 4.86082C12.5323 4.99103 12.3777 5.09429 12.2075 5.16468C12.0373 5.23508 11.855 5.27122 11.6708 5.27106C11.4867 5.27122 11.3043 5.23508 11.1341 5.16468C10.964 5.09429 10.8094 4.99103 10.6792 4.86082C10.5489 4.73061 10.4457 4.576 10.3753 4.40584C10.3049 4.23567 10.2688 4.0533 10.2689 3.86915C10.2688 3.68501 10.3049 3.50263 10.3753 3.33247C10.4457 3.16231 10.5489 3.0077 10.6792 2.87749C10.8094 2.74728 10.964 2.64402 11.1341 2.57363C11.3043 2.50323 11.4867 2.46708 11.6708 2.46725Z" fill="url(#paint0_linear_97_1050)"/>
<path d="M16.1995 32C24.3656 32 23.8557 28.4587 23.8557 28.4587L23.8466 24.79H16.0538V23.6885H26.9417C26.9417 23.6885 32.1671 24.2811 32.1671 16.0413C32.1671 7.80171 27.6062 8.09393 27.6062 8.09393H24.8843V11.9174C24.8843 11.9174 25.031 16.4783 20.3962 16.4783H12.6672C12.6672 16.4783 8.3248 16.4081 8.3248 20.6752V27.7304C8.3248 27.7304 7.66541 32 16.1994 32H16.1995ZM20.4964 29.533C20.3123 29.5332 20.1299 29.497 19.9598 29.4266C19.7896 29.3563 19.635 29.253 19.5048 29.1228C19.3746 28.9926 19.2713 28.838 19.2009 28.6678C19.1305 28.4976 19.0944 28.3153 19.0945 28.1311C19.0943 27.947 19.1305 27.7646 19.2009 27.5944C19.2713 27.4242 19.3745 27.2696 19.5047 27.1394C19.6349 27.0091 19.7896 26.9059 19.9597 26.8355C20.1299 26.7651 20.3123 26.7289 20.4964 26.7291C20.6806 26.7289 20.863 26.7651 21.0331 26.8355C21.2033 26.9059 21.3579 27.0091 21.4881 27.1393C21.6183 27.2695 21.7216 27.4241 21.792 27.5943C21.8624 27.7645 21.8985 27.9468 21.8983 28.131C21.8985 28.3151 21.8624 28.4975 21.792 28.6677C21.7216 28.8378 21.6183 28.9924 21.4881 29.1227C21.3579 29.2529 21.2033 29.3561 21.0331 29.4265C20.863 29.4969 20.6806 29.5331 20.4964 29.5329V29.533Z" fill="url(#paint1_linear_97_1050)"/>
<defs>
<linearGradient id="paint0_linear_97_1050" x1="3.09126" y1="2.8782" x2="19.0324" y2="18.6603" gradientUnits="userSpaceOnUse">
<stop stop-color="#387EB8"/>
<stop offset="1" stop-color="#366994"/>
</linearGradient>
<linearGradient id="paint1_linear_97_1050" x1="12.8758" y1="13.0126" x2="29.9947" y2="29.1956" gradientUnits="userSpaceOnUse">
<stop stop-color="#FFE052"/>
<stop offset="1" stop-color="#FFC331"/>
</linearGradient>
</defs>
</svg>
