<svg width="36" height="32" viewBox="0 0 36 32" fill="none" xmlns="http://www.w3.org/2000/svg">
<path d="M18.1381 18.8212C19.6962 18.8212 20.9593 17.5581 20.9593 16C20.9593 14.4419 19.6962 13.1788 18.1381 13.1788C16.58 13.1788 15.3169 14.4419 15.3169 16C15.3169 17.5581 16.58 18.8212 18.1381 18.8212Z" fill="#61DAFB"/>
<path d="M18.1381 21.78C26.4987 21.78 33.2762 19.1923 33.2762 16C33.2762 12.8078 26.4987 10.22 18.1381 10.22C9.77756 10.22 3 12.8078 3 16C3 19.1923 9.77756 21.78 18.1381 21.78Z" stroke="#61DAFB" stroke-width="5"/>
<path d="M13.1325 18.89C17.3128 26.1304 22.9427 30.7061 25.7072 29.11C28.4717 27.5139 27.324 20.3504 23.1438 13.11C18.9635 5.86954 13.3336 1.2939 10.5691 2.89C7.80454 4.48611 8.95222 11.6496 13.1325 18.89Z" stroke="#61DAFB" stroke-width="5"/>
<path d="M13.1326 13.11C8.95229 20.3505 7.80461 27.5139 10.5691 29.11C13.3337 30.7061 18.9636 26.1305 23.1438 18.89C27.3241 11.6496 28.4718 4.48613 25.7073 2.89003C22.9427 1.29392 17.3128 5.86956 13.1326 13.11Z" stroke="#61DAFB" stroke-width="5"/>
</svg>
