<svg width="54" height="32" viewBox="0 0 54 32" fill="none" xmlns="http://www.w3.org/2000/svg">
<path d="M26.6739 0C19.5607 0 15.1151 3.55563 13.3366 10.6662C16.0044 7.11059 19.1164 5.77773 22.6727 6.66631C24.702 7.1733 26.1523 8.64558 27.758 10.2746C30.373 12.9283 33.3996 15.9997 40.0112 15.9997C47.1238 15.9997 51.5701 12.444 53.3479 5.33278C50.6808 8.88841 47.5688 10.2219 44.0118 9.33336C41.9832 8.82637 40.5329 7.35408 38.9272 5.72503C36.3122 3.07132 33.2849 0 26.6739 0ZM13.3366 15.9997C6.22403 15.9997 1.77782 19.5553 0 26.6666C2.66706 23.1109 5.77908 21.7774 9.33605 22.6666C11.3647 23.1743 12.815 24.6459 14.4207 26.2743C17.0357 28.928 20.063 32 26.6739 32C33.7872 32 38.2328 28.4444 40.0112 21.3331C37.3435 24.8887 34.2315 26.2223 30.6752 25.333C28.6459 24.8267 27.1956 23.3537 25.5899 21.7254C22.9749 19.0716 19.9483 15.9997 13.3366 15.9997Z" fill="#06B6D4"/>
</svg>
