<svg width="33" height="32" viewBox="0 0 33 32" fill="none" xmlns="http://www.w3.org/2000/svg">
<path d="M0.307745 11.1588C0.307745 11.1588 -0.480082 10.591 0.46531 9.83267L2.66794 7.8631C2.66794 7.8631 3.2982 7.20001 3.96457 7.77775L24.2905 23.1667V30.546C24.2905 30.546 24.2807 31.7047 22.7936 31.5767L0.307745 11.1588Z" fill="#2489CA"/>
<path d="M5.54668 15.9154L0.307626 20.6785C0.307626 20.6785 -0.230723 21.079 0.307626 21.7946L2.74004 24.007C2.74004 24.007 3.31778 24.6275 4.17126 23.9217L9.72545 19.7101L5.54668 15.9154Z" fill="#1070B3"/>
<path d="M14.7447 15.9548L24.3529 8.6181L24.2906 1.27816C24.2906 1.27816 23.8802 -0.323762 22.5114 0.510024L9.72559 12.1469L14.7447 15.9548Z" fill="#0877B9"/>
<path d="M22.7938 31.5866C23.3518 32.1578 24.028 31.9707 24.028 31.9707L31.5157 28.281C32.4742 27.6278 32.3396 26.817 32.3396 26.817V4.78404C32.3396 3.81566 31.3483 3.48084 31.3483 3.48084L24.8585 0.352501C23.4405 -0.523958 22.5115 0.510067 22.5115 0.510067C22.5115 0.510067 23.7063 -0.349979 24.2907 1.2782V30.4114C24.2907 30.6117 24.248 30.8086 24.1626 30.9859C23.9919 31.3306 23.621 31.6523 22.7314 31.5177L22.7938 31.5866Z" fill="#3C99D4"/>
</svg>
