<svg width="111" height="32" viewBox="0 0 111 32" fill="none" xmlns="http://www.w3.org/2000/svg">
<path d="M0.405029 15.9266C0.405029 12.3901 2.3522 10.5548 5.3714 10.5548C6.9904 10.5548 7.95305 11.1591 8.50001 12.2111V10.8905H12.4381V20.694C12.4381 25.4391 9.98773 26.5582 5.96212 26.5582C2.5491 26.5582 0.580063 25.3272 0.580063 22.4175H4.08059C4.08059 23.089 5.28389 23.3128 6.11527 23.3128C7.75615 23.3128 8.50001 22.4623 8.50001 21.3431V19.5973C7.97493 20.6493 7.03416 21.2984 5.45892 21.2984C2.57098 21.2984 0.405029 19.463 0.405029 15.9266ZM4.45252 15.9266C4.45252 17.0233 5.13074 17.6052 6.46532 17.6052C7.82178 17.6052 8.50001 17.0233 8.50001 15.9266C8.50001 14.8074 7.82178 14.2479 6.46532 14.2479C4.95572 14.2479 4.45252 14.8074 4.45252 15.9266Z" fill="white"/>
<path d="M18.3478 21.8579H14.4097V10.6667H24.4737V14.2479H18.3478V21.8579Z" fill="white"/>
<path d="M25.5736 16.2623C25.5736 12.3677 27.6083 10.3309 31.8527 10.3309C36.0971 10.3309 38.1536 12.3677 38.1536 16.2623C38.1536 20.1569 36.0971 22.1937 31.8527 22.1937C27.6083 22.1937 25.5736 20.1569 25.5736 16.2623Z" fill="#F57A00"/>
<path d="M39.68 10.6667H43.6181V16.2623C43.6181 17.7395 44.0338 18.5005 45.4121 18.5005C46.6373 18.5005 47.3374 17.7395 47.3374 16.2623V10.6667H51.2755V21.8579H47.3374V20.4254C46.6373 21.5446 45.5434 22.1937 44.0994 22.1937C41.299 22.1937 39.68 21.0522 39.68 16.7099V10.6667Z" fill="white"/>
<path d="M65.0614 21.8579H61.1233V16.2623C61.1233 14.785 60.7076 14.024 59.3293 14.024C58.1041 14.024 57.404 14.785 57.404 16.2623V21.8579H53.4659V10.6667H57.404V12.0991C58.1041 10.98 59.198 10.3309 60.642 10.3309C63.4424 10.3309 65.0614 11.4724 65.0614 15.8146V21.8579Z" fill="white"/>
<path d="M74.6904 21.8579V20.3135C74.1654 21.455 73.2246 22.1937 71.6494 22.1937C68.7614 22.1937 66.5955 20.1569 66.5955 16.2623C66.5955 12.3677 68.5426 10.3309 71.5618 10.3309C73.1808 10.3309 74.1435 11.0024 74.6904 12.1439V5.07104H78.6285V21.8579H74.6904ZM70.643 16.2623C70.643 17.7395 71.3212 18.5005 72.6558 18.5005C74.0122 18.5005 74.6904 17.7395 74.6904 16.2623C74.6904 14.785 74.0122 14.024 72.6558 14.024C71.1462 14.024 70.643 14.785 70.643 16.2623Z" fill="white"/>
<path d="M91.9718 16.9338V17.3814H84.5331C84.7957 18.5229 85.4958 18.9482 86.5459 18.9482C87.5961 18.9482 88.34 18.5453 88.34 18.0529H91.8405C91.8405 20.515 89.9808 22.1937 86.5459 22.1937C82.4109 22.1937 80.3763 20.1569 80.3763 16.2623C80.3763 12.4573 82.4328 10.3309 86.1521 10.3309C90.309 10.3309 91.9718 12.4573 91.9718 16.9338ZM84.7082 14.6955H88.1212C87.8586 13.9793 87.2023 13.5764 86.349 13.5764C85.6489 13.5764 85.0363 13.9569 84.7082 14.6955Z" fill="white"/>
<path d="M101.376 21.8579V20.3135C100.851 21.455 99.9102 22.1937 98.3349 22.1937C95.447 22.1937 93.281 20.1569 93.281 16.2623C93.281 12.3677 95.2282 10.3309 98.2474 10.3309C99.8664 10.3309 100.829 11.0024 101.376 12.1439V5.07104H105.314V21.8579H101.376ZM97.3285 16.2623C97.3285 17.7395 98.0068 18.5005 99.3413 18.5005C100.698 18.5005 101.376 17.7395 101.376 16.2623C101.376 14.785 100.698 14.024 99.3413 14.024C97.8317 14.024 97.3285 14.785 97.3285 16.2623Z" fill="white"/>
<path d="M107.062 20.1792C107.062 18.8363 107.653 18.1648 109.031 18.1648C110.409 18.1648 111 18.8363 111 20.1792C111 21.5222 110.409 22.1937 109.031 22.1937C107.653 22.1937 107.062 21.5222 107.062 20.1792Z" fill="#F57A00"/>
</svg>
