<svg width="292" height="60" viewBox="0 0 292 60" fill="none" xmlns="http://www.w3.org/2000/svg">
<path d="M0 29.8213C0 10.2128 9.91875 0 30.5192 0C51.1197 0 61.0385 10.2128 61.0385 29.8213C61.0385 49.4298 51.1197 59.6426 30.5192 59.6426C9.91875 59.6426 0 49.4298 0 29.8213Z" fill="white"/>
<path d="M14.2423 47.3056V12.9906H48.4239V21.3243H31.0788L48.1695 47.3056H36.7248L23.9067 27.7951V47.3056H14.2423Z" fill="#161616"/>
<path d="M73.7992 29.6844C73.7992 23.0931 77.6409 19.6723 83.5978 19.6723C86.792 19.6723 88.6913 20.7986 89.7704 22.7594V20.298H97.5402V38.5702C97.5402 47.4142 92.7056 49.5001 84.7632 49.5001C78.0294 49.5001 74.1446 47.2056 74.1446 41.7824H81.051C81.051 43.0339 83.4251 43.4511 85.0654 43.4511C88.3028 43.4511 89.7704 41.8658 89.7704 39.78V36.526C88.7344 38.4867 86.8783 39.6965 83.7704 39.6965C78.0726 39.6965 73.7992 36.2757 73.7992 29.6844ZM81.7848 29.6844C81.7848 31.7286 83.1229 32.8132 85.756 32.8132C88.4323 32.8132 89.7704 31.7286 89.7704 29.6844C89.7704 27.5986 88.4323 26.5556 85.756 26.5556C82.7776 26.5556 81.7848 27.5986 81.7848 29.6844Z" fill="white"/>
<path d="M109.2 40.7395H101.43V19.8809H121.286V26.5556H109.2V40.7395Z" fill="white"/>
<path d="M123.456 30.3102C123.456 23.0514 127.471 19.2551 135.845 19.2551C144.219 19.2551 148.276 23.0514 148.276 30.3102C148.276 37.569 144.219 41.3652 135.845 41.3652C127.471 41.3652 123.456 37.569 123.456 30.3102Z" fill="white"/>
<path d="M151.288 19.8809H159.058V30.3102C159.058 33.0635 159.878 34.4819 162.597 34.4819C165.014 34.4819 166.396 33.0635 166.396 30.3102V19.8809H174.165V40.7395H166.396V38.0696C165.014 40.1554 162.856 41.3652 160.007 41.3652C154.482 41.3652 151.288 39.2377 151.288 31.1445V19.8809Z" fill="white"/>
<path d="M201.365 40.7395H193.595V30.3102C193.595 27.5568 192.775 26.1384 190.055 26.1384C187.638 26.1384 186.257 27.5568 186.257 30.3102V40.7395H178.487V19.8809H186.257V22.5508C187.638 20.4649 189.796 19.2551 192.645 19.2551C198.17 19.2551 201.365 21.3827 201.365 29.4758V40.7395Z" fill="white"/>
<path d="M220.362 40.7395V37.861C219.326 39.9886 217.47 41.3652 214.362 41.3652C208.665 41.3652 204.391 37.569 204.391 30.3102C204.391 23.0514 208.233 19.2551 214.19 19.2551C217.384 19.2551 219.283 20.5066 220.362 22.6342V9.45156H228.132V40.7395H220.362ZM212.377 30.3102C212.377 33.0635 213.715 34.4819 216.348 34.4819C219.024 34.4819 220.362 33.0635 220.362 30.3102C220.362 27.5568 219.024 26.1384 216.348 26.1384C213.37 26.1384 212.377 27.5568 212.377 30.3102Z" fill="white"/>
<path d="M254.458 31.5617V32.396H239.782C240.3 34.5236 241.681 35.3162 243.753 35.3162C245.825 35.3162 247.293 34.5653 247.293 33.6475H254.199C254.199 38.2364 250.53 41.3652 243.753 41.3652C235.595 41.3652 231.58 37.569 231.58 30.3102C231.58 23.2182 235.638 19.2551 242.976 19.2551C251.177 19.2551 254.458 23.2182 254.458 31.5617ZM240.127 27.39H246.861C246.343 26.055 245.048 25.3041 243.364 25.3041C241.983 25.3041 240.775 26.0133 240.127 27.39Z" fill="white"/>
<path d="M273.012 40.7395V37.861C271.976 39.9886 270.12 41.3652 267.012 41.3652C261.314 41.3652 257.041 37.569 257.041 30.3102C257.041 23.0514 260.883 19.2551 266.84 19.2551C270.034 19.2551 271.933 20.5066 273.012 22.6342V9.45156H280.782V40.7395H273.012ZM265.027 30.3102C265.027 33.0635 266.365 34.4819 268.998 34.4819C271.674 34.4819 273.012 33.0635 273.012 30.3102C273.012 27.5568 271.674 26.1384 268.998 26.1384C266.02 26.1384 265.027 27.5568 265.027 30.3102Z" fill="white"/>
<path d="M284.23 37.6107C284.23 35.1077 285.396 33.8561 288.115 33.8561C290.834 33.8561 292 35.1077 292 37.6107C292 40.1137 290.834 41.3652 288.115 41.3652C285.396 41.3652 284.23 40.1137 284.23 37.6107Z" fill="white"/>
</svg>
