<svg width="148" height="32" viewBox="0 0 148 32" fill="none" xmlns="http://www.w3.org/2000/svg">
<path d="M0 16C0 5.47945 5.02731 0 15.4687 0C25.91 0 30.9373 5.47945 30.9373 16C30.9373 26.5205 25.91 32 15.4687 32C5.02731 32 0 26.5205 0 16Z" fill="white"/>
<path d="M7.21871 25.3808V6.96986H24.5436V11.4411H15.7522L24.4147 25.3808H18.6139L12.1171 14.9129V25.3808H7.21871Z" fill="#010103"/>
<path d="M37.4051 15.9266C37.4051 12.3901 39.3523 10.5548 42.3715 10.5548C43.9905 10.5548 44.9531 11.1591 45.5001 12.2111V10.8905H49.4382V20.694C49.4382 25.4391 46.9878 26.5582 42.9622 26.5582C39.5492 26.5582 37.5801 25.3272 37.5801 22.4175H41.0807C41.0807 23.089 42.284 23.3128 43.1153 23.3128C44.7562 23.3128 45.5001 22.4623 45.5001 21.3431V19.5973C44.975 20.6493 44.0342 21.2984 42.459 21.2984C39.571 21.2984 37.4051 19.463 37.4051 15.9266ZM41.4526 15.9266C41.4526 17.0233 42.1308 17.6052 43.4654 17.6052C44.8218 17.6052 45.5001 17.0233 45.5001 15.9266C45.5001 14.8074 44.8218 14.2479 43.4654 14.2479C41.9558 14.2479 41.4526 14.8074 41.4526 15.9266Z" fill="white"/>
<path d="M55.3479 21.8579H51.4098V10.6667H61.4738V14.2479H55.3479V21.8579Z" fill="white"/>
<path d="M62.5737 16.2623C62.5737 12.3677 64.6084 10.3309 68.8528 10.3309C73.0972 10.3309 75.1537 12.3677 75.1537 16.2623C75.1537 20.1569 73.0972 22.1937 68.8528 22.1937C64.6084 22.1937 62.5737 20.1569 62.5737 16.2623Z" fill="#F57A00"/>
<path d="M76.6801 10.6667H80.6182V16.2623C80.6182 17.7395 81.0339 18.5005 82.4122 18.5005C83.6374 18.5005 84.3375 17.7395 84.3375 16.2623V10.6667H88.2756V21.8579H84.3375V20.4254C83.6374 21.5446 82.5435 22.1937 81.0995 22.1937C78.2991 22.1937 76.6801 21.0522 76.6801 16.7099V10.6667Z" fill="white"/>
<path d="M102.062 21.8579H98.1234V16.2623C98.1234 14.785 97.7077 14.024 96.3294 14.024C95.1042 14.024 94.4041 14.785 94.4041 16.2623V21.8579H90.466V10.6667H94.4041V12.0991C95.1042 10.98 96.1981 10.3309 97.6421 10.3309C100.443 10.3309 102.062 11.4724 102.062 15.8146V21.8579Z" fill="white"/>
<path d="M111.691 21.8579V20.3135C111.165 21.455 110.225 22.1937 108.649 22.1937C105.762 22.1937 103.596 20.1569 103.596 16.2623C103.596 12.3677 105.543 10.3309 108.562 10.3309C110.181 10.3309 111.144 11.0024 111.691 12.1439V5.07104H115.629V21.8579H111.691ZM107.643 16.2623C107.643 17.7395 108.321 18.5005 109.656 18.5005C111.012 18.5005 111.691 17.7395 111.691 16.2623C111.691 14.785 111.012 14.024 109.656 14.024C108.146 14.024 107.643 14.785 107.643 16.2623Z" fill="white"/>
<path d="M128.972 16.9338V17.3814H121.533C121.796 18.5229 122.496 18.9482 123.546 18.9482C124.596 18.9482 125.34 18.5453 125.34 18.0529H128.841C128.841 20.515 126.981 22.1937 123.546 22.1937C119.411 22.1937 117.376 20.1569 117.376 16.2623C117.376 12.4573 119.433 10.3309 123.152 10.3309C127.309 10.3309 128.972 12.4573 128.972 16.9338ZM121.708 14.6955H125.121C124.859 13.9793 124.202 13.5764 123.349 13.5764C122.649 13.5764 122.036 13.9569 121.708 14.6955Z" fill="white"/>
<path d="M138.376 21.8579V20.3135C137.851 21.455 136.91 22.1937 135.335 22.1937C132.447 22.1937 130.281 20.1569 130.281 16.2623C130.281 12.3677 132.228 10.3309 135.247 10.3309C136.866 10.3309 137.829 11.0024 138.376 12.1439V5.07104H142.314V21.8579H138.376ZM134.329 16.2623C134.329 17.7395 135.007 18.5005 136.341 18.5005C137.698 18.5005 138.376 17.7395 138.376 16.2623C138.376 14.785 137.698 14.024 136.341 14.024C134.832 14.024 134.329 14.785 134.329 16.2623Z" fill="white"/>
<path d="M144.062 20.1792C144.062 18.8363 144.653 18.1648 146.031 18.1648C147.409 18.1648 148 18.8363 148 20.1792C148 21.5222 147.409 22.1937 146.031 22.1937C144.653 22.1937 144.062 21.5222 144.062 20.1792Z" fill="#F57A00"/>
</svg>
