<svg width="186" height="23" viewBox="0 0 186 23" fill="none" xmlns="http://www.w3.org/2000/svg">
<path d="M11.34 13.02C11.34 13.7667 11.1467 14.4533 10.76 15.08C10.3867 15.7067 9.82667 16.2067 9.08 16.58C8.34667 16.9533 7.45333 17.14 6.4 17.14C4.81333 17.14 3.50667 16.7533 2.48 15.98C1.45333 15.2067 0.893333 14.1267 0.8 12.74H4.44C4.49333 13.2733 4.68 13.6933 5 14C5.33333 14.3067 5.75333 14.46 6.26 14.46C6.7 14.46 7.04667 14.34 7.3 14.1C7.55333 13.86 7.68 13.54 7.68 13.14C7.68 12.78 7.56 12.48 7.32 12.24C7.09333 12 6.80667 11.8067 6.46 11.66C6.11333 11.5 5.63333 11.3133 5.02 11.1C4.12667 10.7933 3.39333 10.5 2.82 10.22C2.26 9.92667 1.77333 9.5 1.36 8.94C0.96 8.36667 0.76 7.62667 0.76 6.72C0.76 5.88 0.973333 5.15333 1.4 4.54C1.82667 3.92667 2.41333 3.46 3.16 3.14C3.92 2.80667 4.78667 2.64 5.76 2.64C7.33333 2.64 8.58 3.01333 9.5 3.76C10.4333 4.50667 10.96 5.53333 11.08 6.84H7.38C7.31333 6.37333 7.14 6.00667 6.86 5.74C6.59333 5.46 6.22667 5.32 5.76 5.32C5.36 5.32 5.03333 5.42667 4.78 5.64C4.54 5.85333 4.42 6.16667 4.42 6.58C4.42 6.91333 4.52667 7.2 4.74 7.44C4.96667 7.66667 5.24667 7.85333 5.58 8C5.91333 8.14667 6.39333 8.33333 7.02 8.56C7.92667 8.86667 8.66667 9.17333 9.24 9.48C9.81333 9.77333 10.3067 10.2067 10.72 10.78C11.1333 11.3533 11.34 12.1 11.34 13.02ZM27.6908 5.72C29.0641 5.72 30.1441 6.14667 30.9308 7C31.7174 7.84 32.1108 9.01333 32.1108 10.52V17H28.7108V10.92C28.7108 10.2133 28.5174 9.66667 28.1308 9.28C27.7574 8.88 27.2441 8.68 26.5908 8.68C25.9108 8.68 25.3708 8.89333 24.9708 9.32C24.5841 9.73333 24.3908 10.32 24.3908 11.08V17H20.9708V10.92C20.9708 10.2133 20.7841 9.66667 20.4108 9.28C20.0374 8.88 19.5241 8.68 18.8708 8.68C18.1908 8.68 17.6508 8.88667 17.2508 9.3C16.8508 9.71333 16.6508 10.3067 16.6508 11.08V17H13.2308V5.84H16.6508V7.74C16.9441 7.11333 17.3908 6.62 17.9908 6.26C18.6041 5.9 19.3174 5.72 20.1308 5.72C20.9841 5.72 21.7374 5.92 22.3908 6.32C23.0441 6.70667 23.5374 7.26667 23.8708 8C24.2574 7.30667 24.7841 6.75333 25.4508 6.34C26.1308 5.92667 26.8774 5.72 27.6908 5.72ZM38.6231 5.7C39.4765 5.7 40.2098 5.89333 40.8231 6.28C41.4365 6.66667 41.8898 7.19333 42.1831 7.86V5.84H45.5831V17H42.1831V14.98C41.8898 15.6467 41.4365 16.1733 40.8231 16.56C40.2098 16.9467 39.4765 17.14 38.6231 17.14C37.7031 17.14 36.8765 16.9133 36.1431 16.46C35.4231 15.9933 34.8498 15.3267 34.4231 14.46C34.0098 13.5933 33.8031 12.58 33.8031 11.42C33.8031 10.2467 34.0098 9.23333 34.4231 8.38C34.8498 7.51333 35.4231 6.85333 36.1431 6.4C36.8765 5.93333 37.7031 5.7 38.6231 5.7ZM39.7231 8.7C38.9898 8.7 38.3965 8.94 37.9431 9.42C37.5031 9.9 37.2831 10.5667 37.2831 11.42C37.2831 12.2733 37.5031 12.94 37.9431 13.42C38.3965 13.9 38.9898 14.14 39.7231 14.14C40.4431 14.14 41.0298 13.8933 41.4831 13.4C41.9498 12.9067 42.1831 12.2467 42.1831 11.42C42.1831 10.58 41.9498 9.92 41.4831 9.44C41.0298 8.94667 40.4431 8.7 39.7231 8.7ZM51.3578 7.94C51.7845 7.26 52.3311 6.72 52.9978 6.32C53.6778 5.92 54.4111 5.72 55.1978 5.72V9.38H54.2178C53.3111 9.38 52.6045 9.57333 52.0978 9.96C51.6045 10.3467 51.3578 11 51.3578 11.92V17H47.9378V5.84H51.3578V7.94ZM62.9492 14.06V17H61.4092C60.1026 17 59.0826 16.68 58.3492 16.04C57.6292 15.3867 57.2692 14.3133 57.2692 12.82V8.72H55.7692V5.84H57.2692V3.1H60.6892V5.84H62.9292V8.72H60.6892V12.88C60.6892 13.32 60.7759 13.6267 60.9492 13.8C61.1359 13.9733 61.4426 14.06 61.8692 14.06H62.9492Z" fill="white"/>
<path d="M71.3314 2.72C73.1314 2.72 74.6181 3.19333 75.7914 4.14C76.9781 5.08667 77.7447 6.36667 78.0914 7.98H74.4714C74.2047 7.32667 73.7914 6.81333 73.2314 6.44C72.6847 6.06667 72.0314 5.88 71.2714 5.88C70.2714 5.88 69.4647 6.24667 68.8514 6.98C68.2381 7.71333 67.9314 8.69333 67.9314 9.92C67.9314 11.1467 68.2381 12.1267 68.8514 12.86C69.4647 13.58 70.2714 13.94 71.2714 13.94C72.0314 13.94 72.6847 13.7533 73.2314 13.38C73.7914 13.0067 74.2047 12.5 74.4714 11.86H78.0914C77.7447 13.46 76.9781 14.74 75.7914 15.7C74.6181 16.6467 73.1314 17.12 71.3314 17.12C69.9581 17.12 68.7514 16.82 67.7114 16.22C66.6714 15.6067 65.8647 14.7533 65.2914 13.66C64.7314 12.5667 64.4514 11.32 64.4514 9.92C64.4514 8.52 64.7314 7.27333 65.2914 6.18C65.8647 5.08667 66.6714 4.24 67.7114 3.64C68.7514 3.02667 69.9581 2.72 71.3314 2.72ZM85.2281 5.7C86.3348 5.7 87.3215 5.93333 88.1881 6.4C89.0681 6.85333 89.7548 7.51333 90.2481 8.38C90.7548 9.24667 91.0081 10.26 91.0081 11.42C91.0081 12.58 90.7548 13.5933 90.2481 14.46C89.7548 15.3267 89.0681 15.9933 88.1881 16.46C87.3215 16.9133 86.3348 17.14 85.2281 17.14C84.1215 17.14 83.1281 16.9133 82.2481 16.46C81.3681 15.9933 80.6748 15.3267 80.1681 14.46C79.6748 13.5933 79.4281 12.58 79.4281 11.42C79.4281 10.26 79.6748 9.24667 80.1681 8.38C80.6748 7.51333 81.3681 6.85333 82.2481 6.4C83.1281 5.93333 84.1215 5.7 85.2281 5.7ZM85.2281 8.66C84.5748 8.66 84.0215 8.9 83.5681 9.38C83.1281 9.84667 82.9081 10.5267 82.9081 11.42C82.9081 12.3133 83.1281 12.9933 83.5681 13.46C84.0215 13.9267 84.5748 14.16 85.2281 14.16C85.8815 14.16 86.4281 13.9267 86.8681 13.46C87.3081 12.9933 87.5281 12.3133 87.5281 11.42C87.5281 10.5267 87.3081 9.84667 86.8681 9.38C86.4281 8.9 85.8815 8.66 85.2281 8.66ZM103.882 5.84V17H100.442V14.98C100.122 15.6333 99.6416 16.1533 99.0016 16.54C98.3749 16.9267 97.6416 17.12 96.8016 17.12C95.5216 17.12 94.5016 16.6933 93.7416 15.84C92.9949 14.9867 92.6216 13.8133 92.6216 12.32V5.84H96.0216V11.9C96.0216 12.66 96.2149 13.2533 96.6016 13.68C97.0016 14.0933 97.5349 14.3 98.2016 14.3C98.8949 14.3 99.4416 14.08 99.8416 13.64C100.242 13.2 100.442 12.5733 100.442 11.76V5.84H103.882ZM113.319 5.72C114.599 5.72 115.612 6.14667 116.359 7C117.119 7.85333 117.499 9.02667 117.499 10.52V17H114.079V10.92C114.079 10.1733 113.879 9.59333 113.479 9.18C113.092 8.75333 112.572 8.54 111.919 8.54C111.225 8.54 110.672 8.76 110.259 9.2C109.859 9.64 109.659 10.2667 109.659 11.08V17H106.239V5.84H109.659V7.88C109.979 7.21333 110.452 6.68667 111.079 6.3C111.719 5.91333 112.465 5.72 113.319 5.72ZM123.814 5.7C125.228 5.7 126.354 6.05333 127.194 6.76C128.048 7.46667 128.581 8.4 128.794 9.56H125.594C125.501 9.10667 125.288 8.75333 124.954 8.5C124.634 8.23333 124.228 8.1 123.734 8.1C123.348 8.1 123.054 8.18667 122.854 8.36C122.654 8.52 122.554 8.75333 122.554 9.06C122.554 9.40667 122.734 9.66667 123.094 9.84C123.468 10.0133 124.048 10.1867 124.834 10.36C125.688 10.56 126.388 10.7667 126.934 10.98C127.481 11.18 127.954 11.5133 128.354 11.98C128.754 12.4467 128.954 13.0733 128.954 13.86C128.954 14.5 128.781 15.0667 128.434 15.56C128.088 16.0533 127.588 16.44 126.934 16.72C126.281 17 125.508 17.14 124.614 17.14C123.108 17.14 121.901 16.8067 120.994 16.14C120.088 15.4733 119.534 14.52 119.334 13.28H122.634C122.688 13.76 122.888 14.1267 123.234 14.38C123.594 14.6333 124.054 14.76 124.614 14.76C125.001 14.76 125.294 14.6733 125.494 14.5C125.694 14.3133 125.794 14.0733 125.794 13.78C125.794 13.3933 125.608 13.12 125.234 12.96C124.874 12.7867 124.281 12.6067 123.454 12.42C122.628 12.2467 121.948 12.06 121.414 11.86C120.881 11.66 120.421 11.34 120.034 10.9C119.648 10.4467 119.454 9.83333 119.454 9.06C119.454 8.06 119.834 7.25333 120.594 6.64C121.354 6.01333 122.428 5.7 123.814 5.7ZM141.448 11.12C141.448 11.4 141.415 11.7067 141.348 12.04H133.608C133.648 12.88 133.861 13.4867 134.248 13.86C134.635 14.22 135.128 14.4 135.728 14.4C136.235 14.4 136.655 14.2733 136.988 14.02C137.321 13.7667 137.541 13.44 137.648 13.04H141.268C141.121 13.8267 140.801 14.5333 140.308 15.16C139.815 15.7733 139.188 16.26 138.428 16.62C137.668 16.9667 136.821 17.14 135.888 17.14C134.795 17.14 133.821 16.9133 132.968 16.46C132.128 15.9933 131.468 15.3267 130.988 14.46C130.508 13.5933 130.268 12.58 130.268 11.42C130.268 10.2467 130.501 9.23333 130.968 8.38C131.448 7.51333 132.115 6.85333 132.968 6.4C133.821 5.93333 134.795 5.7 135.888 5.7C136.995 5.7 137.968 5.92667 138.808 6.38C139.648 6.83333 140.295 7.47333 140.748 8.3C141.215 9.11333 141.448 10.0533 141.448 11.12ZM137.988 10.6C138.001 9.86667 137.801 9.32 137.388 8.96C136.988 8.58667 136.488 8.4 135.888 8.4C135.261 8.4 134.741 8.58667 134.328 8.96C133.915 9.33333 133.681 9.88 133.628 10.6H137.988ZM146.651 2.2V17H143.231V2.2H146.651ZM152.432 2.2V17H149.012V2.2H152.432ZM154.473 2.7C154.473 2.18 154.66 1.75333 155.033 1.42C155.407 1.07333 155.9 0.899999 156.513 0.899999C157.127 0.899999 157.62 1.07333 157.993 1.42C158.367 1.75333 158.553 2.18 158.553 2.7C158.553 3.20667 158.367 3.63333 157.993 3.98C157.62 4.31333 157.127 4.48 156.513 4.48C155.9 4.48 155.407 4.31333 155.033 3.98C154.66 3.63333 154.473 3.20667 154.473 2.7ZM158.213 5.84V17H154.793V5.84H158.213ZM167.655 5.72C168.935 5.72 169.948 6.14667 170.695 7C171.455 7.85333 171.835 9.02667 171.835 10.52V17H168.415V10.92C168.415 10.1733 168.215 9.59333 167.815 9.18C167.428 8.75333 166.908 8.54 166.255 8.54C165.561 8.54 165.008 8.76 164.595 9.2C164.195 9.64 163.995 10.2667 163.995 11.08V17H160.575V5.84H163.995V7.88C164.315 7.21333 164.788 6.68667 165.415 6.3C166.055 5.91333 166.801 5.72 167.655 5.72ZM178.33 5.7C179.183 5.7 179.917 5.89333 180.53 6.28C181.143 6.66667 181.597 7.19333 181.89 7.86V5.84H185.29V16.94C185.29 17.98 185.09 18.9133 184.69 19.74C184.29 20.58 183.677 21.2467 182.85 21.74C182.023 22.2333 180.997 22.48 179.77 22.48C178.09 22.48 176.743 22.08 175.73 21.28C174.73 20.4933 174.13 19.42 173.93 18.06H177.31C177.417 18.5133 177.657 18.8667 178.03 19.12C178.417 19.3733 178.917 19.5 179.53 19.5C180.237 19.5 180.803 19.2933 181.23 18.88C181.67 18.48 181.89 17.8333 181.89 16.94V14.98C181.597 15.6467 181.143 16.1733 180.53 16.56C179.917 16.9467 179.183 17.14 178.33 17.14C177.41 17.14 176.583 16.9133 175.85 16.46C175.13 15.9933 174.557 15.3267 174.13 14.46C173.717 13.5933 173.51 12.58 173.51 11.42C173.51 10.2467 173.717 9.23333 174.13 8.38C174.557 7.51333 175.13 6.85333 175.85 6.4C176.583 5.93333 177.41 5.7 178.33 5.7ZM179.43 8.7C178.697 8.7 178.103 8.94 177.65 9.42C177.21 9.9 176.99 10.5667 176.99 11.42C176.99 12.2733 177.21 12.94 177.65 13.42C178.103 13.9 178.697 14.14 179.43 14.14C180.15 14.14 180.737 13.8933 181.19 13.4C181.657 12.9067 181.89 12.2467 181.89 11.42C181.89 10.58 181.657 9.92 181.19 9.44C180.737 8.94667 180.15 8.7 179.43 8.7Z" fill="#009EE5"/>
</svg>
